<svg xmlns="http://www.w3.org/2000/svg" xmlns:xlink="http://www.w3.org/1999/xlink" width="320" zoomAndPan="magnify" viewBox="0 0 240 74.999997" height="100" preserveAspectRatio="xMidYMid meet" version="1.0"><defs><g/><clipPath id="397ea516a7"><path d="M 3.050781 21.738281 L 236.835938 21.738281 L 236.835938 53.269531 L 3.050781 53.269531 Z M 3.050781 21.738281 " clip-rule="nonzero"/></clipPath><clipPath id="8c0b3c45c0"><path d="M 236.835938 37.503906 C 236.835938 46.210938 229.777344 53.269531 221.070312 53.269531 L 18.917969 53.269531 C 10.210938 53.269531 3.152344 46.210938 3.152344 37.503906 C 3.152344 28.796875 10.210938 21.738281 18.917969 21.738281 L 221.070312 21.738281 C 229.777344 21.738281 236.835938 28.796875 236.835938 37.503906 Z M 236.835938 37.503906 " clip-rule="nonzero"/></clipPath><clipPath id="40c9a7a5c7"><path d="M 0.121094 0.738281 L 233.835938 0.738281 L 233.835938 32.269531 L 0.121094 32.269531 Z M 0.121094 0.738281 " clip-rule="nonzero"/></clipPath><clipPath id="67d869d624"><path d="M 233.835938 16.503906 C 233.835938 25.210938 226.777344 32.269531 218.070312 32.269531 L 15.917969 32.269531 C 7.210938 32.269531 0.152344 25.210938 0.152344 16.503906 C 0.152344 7.796875 7.210938 0.738281 15.917969 0.738281 L 218.070312 0.738281 C 226.777344 0.738281 233.835938 7.796875 233.835938 16.503906 Z M 233.835938 16.503906 " clip-rule="nonzero"/></clipPath><clipPath id="188c1e0741"><rect x="0" width="234" y="0" height="33"/></clipPath></defs><g clip-path="url(#397ea516a7)"><g clip-path="url(#8c0b3c45c0)"><g transform="matrix(1, 0, 0, 1, 3, 21)"><g clip-path="url(#188c1e0741)"><g clip-path="url(#40c9a7a5c7)"><g clip-path="url(#67d869d624)"><path fill="#fec9a7" d="M 233.835938 0.738281 L 233.835938 32.269531 L 0.171875 32.269531 L 0.171875 0.738281 Z M 233.835938 0.738281 " fill-opacity="1" fill-rule="nonzero"/></g></g></g></g></g></g><g fill="#ffffff" fill-opacity="1"><g transform="translate(67.828125, 45.749995)"><g><path d="M 8.925781 0.40625 C 10.4375 0.40625 11.875 0.144531 12.882812 -0.40625 C 13.796875 -0.886719 14.347656 -1.632812 14.347656 -2.566406 C 14.347656 -3.695312 13.722656 -4.488281 12.5 -4.488281 C 12.09375 -4.488281 11.757812 -4.367188 11.347656 -4.222656 C 10.820312 -4.078125 10.101562 -3.765625 8.804688 -3.765625 C 6.453125 -3.765625 4.964844 -5.757812 4.964844 -8.566406 C 4.964844 -11.46875 6.476562 -13.484375 9.214844 -13.484375 C 9.980469 -13.484375 10.726562 -13.195312 11.394531 -12.980469 C 11.78125 -12.835938 12.140625 -12.765625 12.453125 -12.765625 C 13.484375 -12.765625 14.25 -13.675781 14.25 -14.730469 C 14.25 -15.644531 13.699219 -16.339844 12.789062 -16.820312 C 11.875 -17.25 10.605469 -17.492188 9.09375 -17.492188 C 3.886719 -17.492188 0.480469 -13.820312 0.480469 -8.46875 C 0.480469 -3.429688 3.742188 0.40625 8.925781 0.40625 Z M 8.925781 0.40625 "/></g></g></g><g fill="#ffffff" fill-opacity="1"><g transform="translate(82.149111, 45.749995)"><g><path d="M 3 0.144531 C 4.222656 0.144531 5.085938 -0.648438 5.085938 -1.96875 L 5.085938 -6.742188 L 5.132812 -6.742188 L 9.574219 -1.007812 C 10.269531 -0.0703125 10.84375 0.144531 11.589844 0.144531 C 13.003906 0.144531 13.773438 -0.886719 13.773438 -1.800781 C 13.773438 -2.496094 13.363281 -3.070312 12.882812 -3.597656 L 9.789062 -6.933594 L 9.933594 -6.980469 C 12.476562 -7.628906 13.554688 -9.691406 13.554688 -11.683594 C 13.554688 -14.996094 11.179688 -17.082031 7.796875 -17.082031 L 2.925781 -17.082031 C 1.847656 -17.082031 0.910156 -16.195312 0.910156 -15.042969 L 0.910156 -1.96875 C 0.910156 -0.648438 1.777344 0.144531 3 0.144531 Z M 5.085938 -9.789062 L 5.085938 -13.21875 L 7.652344 -13.21875 C 8.542969 -13.21875 9.382812 -12.621094 9.382812 -11.5625 C 9.382812 -10.507812 8.660156 -9.789062 7.652344 -9.789062 Z M 5.085938 -9.789062 "/></g></g></g><g fill="#ffffff" fill-opacity="1"><g transform="translate(96.182233, 45.749995)"><g><path d="M 2.925781 0 L 9.164062 0 C 10.339844 0 11.15625 -0.769531 11.15625 -1.945312 C 11.15625 -3.167969 10.363281 -3.863281 9.140625 -3.863281 L 5.085938 -3.863281 L 5.085938 -6.667969 L 8.683594 -6.667969 C 9.910156 -6.667969 10.675781 -7.390625 10.675781 -8.589844 C 10.675781 -9.8125 9.859375 -10.53125 8.683594 -10.53125 L 5.0625 -10.53125 L 5.0625 -13.21875 L 9.046875 -13.21875 C 10.195312 -13.21875 11.035156 -13.914062 11.035156 -15.140625 C 11.035156 -16.316406 10.195312 -17.082031 9.046875 -17.082031 L 2.925781 -17.082031 C 1.847656 -17.082031 0.910156 -16.195312 0.910156 -15.042969 L 0.910156 -2.039062 C 0.910156 -0.886719 1.847656 0 2.925781 0 Z M 2.925781 0 "/></g></g></g><g fill="#ffffff" fill-opacity="1"><g transform="translate(107.504685, 45.749995)"><g><path d="M 2.925781 0 L 7.796875 0 C 11.828125 0 15.714844 -2.976562 15.714844 -8.710938 C 15.714844 -13.554688 12.285156 -17.082031 7.773438 -17.082031 L 2.925781 -17.082031 C 1.847656 -17.082031 0.910156 -16.195312 0.910156 -15.042969 L 0.910156 -2.039062 C 0.910156 -0.886719 1.847656 0 2.925781 0 Z M 5.085938 -3.863281 L 5.085938 -13.21875 L 7.246094 -13.21875 C 9.644531 -13.21875 11.253906 -11.589844 11.253906 -8.660156 C 11.253906 -5.589844 9.621094 -3.863281 7.078125 -3.863281 Z M 5.085938 -3.863281 "/></g></g></g><g fill="#ffffff" fill-opacity="1"><g transform="translate(123.720744, 45.749995)"><g><path d="M 3 0.144531 C 4.222656 0.144531 5.085938 -0.648438 5.085938 -1.96875 L 5.085938 -15.117188 C 5.085938 -16.433594 4.222656 -17.226562 3 -17.226562 C 1.777344 -17.226562 0.910156 -16.433594 0.910156 -15.117188 L 0.910156 -1.96875 C 0.910156 -0.648438 1.777344 0.144531 3 0.144531 Z M 3 0.144531 "/></g></g></g><g fill="#ffffff" fill-opacity="1"><g transform="translate(129.717802, 45.749995)"><g><path d="M 5.757812 0.144531 C 6.980469 0.144531 7.820312 -0.648438 7.820312 -1.96875 L 7.820312 -13.21875 L 9.957031 -13.21875 C 11.203125 -13.21875 12.019531 -13.941406 12.019531 -15.140625 C 12.019531 -16.363281 11.203125 -17.082031 9.957031 -17.082031 L 1.558594 -17.082031 C 0.289062 -17.082031 -0.527344 -16.363281 -0.527344 -15.140625 C -0.527344 -13.941406 0.289062 -13.21875 1.558594 -13.21875 L 3.671875 -13.21875 L 3.671875 -1.96875 C 3.671875 -0.648438 4.511719 0.144531 5.757812 0.144531 Z M 5.757812 0.144531 "/></g></g></g><g fill="#ffffff" fill-opacity="1"><g transform="translate(140.968248, 45.749995)"><g><path d="M 9.046875 0.40625 C 14.277344 0.40625 17.585938 -3.167969 17.585938 -8.542969 C 17.585938 -14.058594 14.132812 -17.492188 9.046875 -17.492188 C 3.886719 -17.492188 0.480469 -14.035156 0.480469 -8.542969 C 0.480469 -3.09375 3.910156 0.40625 9.046875 0.40625 Z M 9.019531 -3.429688 C 6.574219 -3.429688 4.964844 -5.445312 4.964844 -8.542969 C 4.964844 -11.5625 6.503906 -13.652344 9.019531 -13.652344 C 11.660156 -13.652344 13.101562 -11.492188 13.101562 -8.542969 C 13.101562 -5.566406 11.636719 -3.429688 9.019531 -3.429688 Z M 9.019531 -3.429688 "/></g></g></g><g fill="#ffffff" fill-opacity="1"><g transform="translate(159.031395, 45.749995)"><g><path d="M 6 0.40625 C 10.101562 0.40625 12.644531 -1.703125 12.644531 -5.328125 C 12.644531 -8.902344 10.460938 -9.765625 7.246094 -10.796875 C 5.734375 -11.300781 4.871094 -11.515625 4.871094 -12.285156 C 4.871094 -13.050781 5.542969 -13.484375 6.527344 -13.484375 C 7.582031 -13.484375 8.230469 -13.171875 8.902344 -12.980469 C 9.164062 -12.90625 9.453125 -12.859375 9.789062 -12.859375 C 10.917969 -12.859375 11.660156 -13.675781 11.660156 -14.804688 C 11.660156 -15.738281 11.035156 -16.507812 9.910156 -16.960938 C 9.09375 -17.296875 8.011719 -17.492188 6.695312 -17.492188 C 2.976562 -17.492188 0.382812 -15.476562 0.382812 -11.925781 C 0.382812 -8.398438 3.144531 -7.628906 5.902344 -6.8125 C 7.390625 -6.335938 8.132812 -5.902344 8.132812 -5.0625 C 8.132812 -4.246094 7.460938 -3.71875 6.285156 -3.71875 C 4.992188 -3.71875 4.03125 -4.152344 3.214844 -4.414062 C 2.78125 -4.558594 2.445312 -4.679688 2.085938 -4.679688 C 0.816406 -4.679688 0.0976562 -3.671875 0.0976562 -2.519531 C 0.0976562 -1.679688 0.71875 -1.03125 1.609375 -0.527344 C 2.78125 0.0976562 4.4375 0.40625 6 0.40625 Z M 6 0.40625 "/></g></g></g></svg>