<svg xmlns="http://www.w3.org/2000/svg" xmlns:xlink="http://www.w3.org/1999/xlink" width="320" zoomAndPan="magnify" viewBox="0 0 240 74.999997" height="100" preserveAspectRatio="xMidYMid meet" version="1.0"><defs><g/><clipPath id="ecdf648951"><path d="M 3.050781 21.738281 L 236.835938 21.738281 L 236.835938 53.269531 L 3.050781 53.269531 Z M 3.050781 21.738281 " clip-rule="nonzero"/></clipPath><clipPath id="af05d823f1"><path d="M 236.835938 37.503906 C 236.835938 46.210938 229.777344 53.269531 221.070312 53.269531 L 18.917969 53.269531 C 10.210938 53.269531 3.152344 46.210938 3.152344 37.503906 C 3.152344 28.796875 10.210938 21.738281 18.917969 21.738281 L 221.070312 21.738281 C 229.777344 21.738281 236.835938 28.796875 236.835938 37.503906 Z M 236.835938 37.503906 " clip-rule="nonzero"/></clipPath><clipPath id="66e957fbe1"><path d="M 0.121094 0.738281 L 233.835938 0.738281 L 233.835938 32.269531 L 0.121094 32.269531 Z M 0.121094 0.738281 " clip-rule="nonzero"/></clipPath><clipPath id="21ac0bec1c"><path d="M 233.835938 16.503906 C 233.835938 25.210938 226.777344 32.269531 218.070312 32.269531 L 15.917969 32.269531 C 7.210938 32.269531 0.152344 25.210938 0.152344 16.503906 C 0.152344 7.796875 7.210938 0.738281 15.917969 0.738281 L 218.070312 0.738281 C 226.777344 0.738281 233.835938 7.796875 233.835938 16.503906 Z M 233.835938 16.503906 " clip-rule="nonzero"/></clipPath><clipPath id="eb35fad019"><rect x="0" width="234" y="0" height="33"/></clipPath></defs><g clip-path="url(#ecdf648951)"><g clip-path="url(#af05d823f1)"><g transform="matrix(1, 0, 0, 1, 3, 21)"><g clip-path="url(#eb35fad019)"><g clip-path="url(#66e957fbe1)"><g clip-path="url(#21ac0bec1c)"><path fill="#c6b1ef" d="M 233.835938 0.738281 L 233.835938 32.269531 L 0.171875 32.269531 L 0.171875 0.738281 Z M 233.835938 0.738281 " fill-opacity="1" fill-rule="nonzero"/></g></g></g></g></g></g><g fill="#ffffff" fill-opacity="1"><g transform="translate(83.302733, 45.749995)"><g><path d="M 4.199219 0.40625 C 7.820312 0.40625 9.550781 -1.441406 9.550781 -5.300781 L 9.550781 -15.117188 C 9.550781 -16.433594 8.683594 -17.226562 7.460938 -17.226562 C 6.238281 -17.226562 5.375 -16.433594 5.375 -15.117188 L 5.375 -6.09375 C 5.375 -4.390625 5.085938 -3.621094 4.078125 -3.621094 C 3.191406 -3.621094 2.566406 -4.511719 1.65625 -4.511719 C 0.433594 -4.511719 -0.214844 -3.671875 -0.214844 -2.445312 C -0.214844 -0.289062 2.277344 0.3125 4.199219 0.40625 Z M 4.199219 0.40625 "/></g></g></g><g fill="#ffffff" fill-opacity="1"><g transform="translate(93.761614, 45.749995)"><g><path d="M 8.300781 0.40625 C 12.957031 0.40625 15.859375 -2.6875 15.859375 -6.910156 L 15.859375 -15.117188 C 15.859375 -16.433594 14.996094 -17.226562 13.773438 -17.226562 C 12.523438 -17.226562 11.683594 -16.410156 11.683594 -15.117188 L 11.683594 -6.910156 C 11.683594 -4.992188 10.316406 -3.597656 8.324219 -3.597656 C 6.285156 -3.597656 4.964844 -5.015625 4.964844 -6.910156 L 4.964844 -15.117188 C 4.964844 -16.433594 4.125 -17.226562 2.878906 -17.226562 C 1.65625 -17.226562 0.792969 -16.433594 0.792969 -15.117188 L 0.792969 -6.910156 C 0.792969 -2.664062 3.742188 0.40625 8.300781 0.40625 Z M 8.300781 0.40625 "/></g></g></g><g fill="#ffffff" fill-opacity="1"><g transform="translate(110.409458, 45.749995)"><g><path d="M 9.140625 0.40625 C 13.53125 0.40625 16.867188 -3.023438 16.867188 -7.675781 C 16.867188 -9.429688 16.050781 -10.195312 14.78125 -10.195312 L 10.339844 -10.195312 C 9.140625 -10.195312 8.347656 -9.5 8.347656 -8.253906 C 8.347656 -7.054688 9.140625 -6.335938 10.363281 -6.335938 L 12.546875 -6.335938 C 12.332031 -4.582031 10.917969 -3.429688 9.09375 -3.429688 C 6.527344 -3.429688 4.964844 -5.589844 4.964844 -8.542969 C 4.964844 -11.539062 6.742188 -13.652344 9.1875 -13.652344 C 10.820312 -13.652344 11.707031 -12.882812 12.378906 -12.453125 C 12.859375 -12.140625 13.316406 -11.875 13.890625 -11.875 C 15.019531 -11.875 15.738281 -12.621094 15.738281 -13.605469 C 15.738281 -14.539062 15.257812 -15.308594 14.46875 -15.90625 C 13.242188 -16.914062 11.179688 -17.492188 9.019531 -17.492188 C 4.101562 -17.492188 0.480469 -13.746094 0.480469 -8.398438 C 0.480469 -3.933594 3.3125 0.40625 9.140625 0.40625 Z M 9.140625 0.40625 "/></g></g></g><g fill="#ffffff" fill-opacity="1"><g transform="translate(127.417037, 45.749995)"><g><path d="M 1.945312 0.144531 C 3.046875 0.144531 3.648438 -0.335938 4.175781 -1.96875 L 4.535156 -3.214844 L 10.675781 -3.214844 L 11.109375 -1.894531 C 11.492188 -0.625 12.019531 0.144531 13.292969 0.144531 C 14.492188 0.144531 15.285156 -0.527344 15.285156 -1.582031 C 15.285156 -2.421875 14.972656 -3.285156 14.660156 -4.125 L 10.628906 -14.921875 C 10.027344 -16.53125 9.117188 -17.492188 7.652344 -17.492188 C 6.09375 -17.492188 5.207031 -16.53125 4.605469 -14.921875 L 0.527344 -4.03125 C 0.265625 -3.3125 -0.046875 -2.398438 -0.046875 -1.582031 C -0.046875 -0.527344 0.742188 0.144531 1.945312 0.144531 Z M 5.78125 -7.101562 L 7.675781 -12.90625 L 7.726562 -12.90625 L 9.453125 -7.101562 Z M 5.78125 -7.101562 "/></g></g></g><g fill="#ffffff" fill-opacity="1"><g transform="translate(142.649568, 45.749995)"><g><path d="M 3 0.144531 C 4.222656 0.144531 5.085938 -0.648438 5.085938 -1.96875 L 5.085938 -6.742188 L 5.132812 -6.742188 L 9.574219 -1.007812 C 10.269531 -0.0703125 10.84375 0.144531 11.589844 0.144531 C 13.003906 0.144531 13.773438 -0.886719 13.773438 -1.800781 C 13.773438 -2.496094 13.363281 -3.070312 12.882812 -3.597656 L 9.789062 -6.933594 L 9.933594 -6.980469 C 12.476562 -7.628906 13.554688 -9.691406 13.554688 -11.683594 C 13.554688 -14.996094 11.179688 -17.082031 7.796875 -17.082031 L 2.925781 -17.082031 C 1.847656 -17.082031 0.910156 -16.195312 0.910156 -15.042969 L 0.910156 -1.96875 C 0.910156 -0.648438 1.777344 0.144531 3 0.144531 Z M 5.085938 -9.789062 L 5.085938 -13.21875 L 7.652344 -13.21875 C 8.542969 -13.21875 9.382812 -12.621094 9.382812 -11.5625 C 9.382812 -10.507812 8.660156 -9.789062 7.652344 -9.789062 Z M 5.085938 -9.789062 "/></g></g></g></svg>