<svg xmlns="http://www.w3.org/2000/svg" xmlns:xlink="http://www.w3.org/1999/xlink" width="320" zoomAndPan="magnify" viewBox="0 0 240 74.999997" height="100" preserveAspectRatio="xMidYMid meet" version="1.0"><defs><g/><clipPath id="b6a0a4c3d2"><path d="M 4.402344 26.386719 L 238.1875 26.386719 L 238.1875 57.921875 L 4.402344 57.921875 Z M 4.402344 26.386719 " clip-rule="nonzero"/></clipPath><clipPath id="e2490f5e23"><path d="M 238.1875 42.15625 C 238.1875 50.863281 231.128906 57.921875 222.421875 57.921875 L 20.269531 57.921875 C 11.5625 57.921875 4.503906 50.863281 4.503906 42.15625 C 4.503906 33.445312 11.5625 26.386719 20.269531 26.386719 L 222.421875 26.386719 C 231.128906 26.386719 238.1875 33.445312 238.1875 42.15625 Z M 238.1875 42.15625 " clip-rule="nonzero"/></clipPath><clipPath id="6ac8549da7"><path d="M 0.402344 0.386719 L 234.1875 0.386719 L 234.1875 31.921875 L 0.402344 31.921875 Z M 0.402344 0.386719 " clip-rule="nonzero"/></clipPath><clipPath id="fdf5f0d8c6"><path d="M 234.1875 16.15625 C 234.1875 24.863281 227.128906 31.921875 218.421875 31.921875 L 16.269531 31.921875 C 7.5625 31.921875 0.503906 24.863281 0.503906 16.15625 C 0.503906 7.445312 7.5625 0.386719 16.269531 0.386719 L 218.421875 0.386719 C 227.128906 0.386719 234.1875 7.445312 234.1875 16.15625 Z M 234.1875 16.15625 " clip-rule="nonzero"/></clipPath><clipPath id="2a6aeaa0b4"><rect x="0" width="235" y="0" height="32"/></clipPath></defs><g clip-path="url(#b6a0a4c3d2)"><g clip-path="url(#e2490f5e23)"><g transform="matrix(1, 0, 0, 1, 4, 26)"><g clip-path="url(#2a6aeaa0b4)"><g clip-path="url(#6ac8549da7)"><g clip-path="url(#fdf5f0d8c6)"><path fill="#f3edff" d="M 234.1875 0.386719 L 234.1875 31.921875 L 0.523438 31.921875 L 0.523438 0.386719 Z M 234.1875 0.386719 " fill-opacity="1" fill-rule="nonzero"/></g></g></g></g></g></g><g fill="#997bd4" fill-opacity="1"><g transform="translate(59.241794, 50.399993)"><g><path d="M 3 0.144531 C 4.222656 0.144531 5.085938 -0.648438 5.085938 -1.96875 L 5.085938 -6.742188 L 5.132812 -6.742188 L 9.574219 -1.007812 C 10.269531 -0.0703125 10.84375 0.144531 11.589844 0.144531 C 13.003906 0.144531 13.773438 -0.886719 13.773438 -1.800781 C 13.773438 -2.496094 13.363281 -3.070312 12.882812 -3.597656 L 9.789062 -6.933594 L 9.933594 -6.980469 C 12.476562 -7.628906 13.554688 -9.691406 13.554688 -11.683594 C 13.554688 -14.996094 11.179688 -17.082031 7.796875 -17.082031 L 2.925781 -17.082031 C 1.847656 -17.082031 0.910156 -16.195312 0.910156 -15.042969 L 0.910156 -1.96875 C 0.910156 -0.648438 1.777344 0.144531 3 0.144531 Z M 5.085938 -9.789062 L 5.085938 -13.21875 L 7.652344 -13.21875 C 8.542969 -13.21875 9.382812 -12.621094 9.382812 -11.5625 C 9.382812 -10.507812 8.660156 -9.789062 7.652344 -9.789062 Z M 5.085938 -9.789062 "/></g></g></g><g fill="#997bd4" fill-opacity="1"><g transform="translate(73.274916, 50.399993)"><g><path d="M 2.925781 0 L 9.164062 0 C 10.339844 0 11.15625 -0.769531 11.15625 -1.945312 C 11.15625 -3.167969 10.363281 -3.863281 9.140625 -3.863281 L 5.085938 -3.863281 L 5.085938 -6.667969 L 8.683594 -6.667969 C 9.910156 -6.667969 10.675781 -7.390625 10.675781 -8.589844 C 10.675781 -9.8125 9.859375 -10.53125 8.683594 -10.53125 L 5.0625 -10.53125 L 5.0625 -13.21875 L 9.046875 -13.21875 C 10.195312 -13.21875 11.035156 -13.914062 11.035156 -15.140625 C 11.035156 -16.316406 10.195312 -17.082031 9.046875 -17.082031 L 2.925781 -17.082031 C 1.847656 -17.082031 0.910156 -16.195312 0.910156 -15.042969 L 0.910156 -2.039062 C 0.910156 -0.886719 1.847656 0 2.925781 0 Z M 2.925781 0 "/></g></g></g><g fill="#997bd4" fill-opacity="1"><g transform="translate(84.597368, 50.399993)"><g><path d="M 3 0.144531 C 4.222656 0.144531 5.085938 -0.648438 5.085938 -1.96875 L 5.085938 -15.117188 C 5.085938 -16.433594 4.222656 -17.226562 3 -17.226562 C 1.777344 -17.226562 0.910156 -16.433594 0.910156 -15.117188 L 0.910156 -1.96875 C 0.910156 -0.648438 1.777344 0.144531 3 0.144531 Z M 3 0.144531 "/></g></g></g><g fill="#997bd4" fill-opacity="1"><g transform="translate(90.594426, 50.399993)"><g><path d="M 3 0.144531 C 4.222656 0.144531 5.085938 -0.648438 5.085938 -1.96875 L 5.085938 -9.523438 L 5.132812 -9.523438 L 11.925781 -1.246094 C 12.714844 -0.265625 13.242188 0.144531 14.15625 0.144531 C 15.378906 0.144531 16.21875 -0.648438 16.21875 -1.992188 L 16.21875 -15.117188 C 16.21875 -16.433594 15.378906 -17.226562 14.132812 -17.226562 C 12.90625 -17.226562 12.042969 -16.433594 12.042969 -15.117188 L 12.042969 -7.558594 L 11.996094 -7.558594 L 5.015625 -16.027344 C 4.367188 -16.867188 3.886719 -17.226562 2.949219 -17.226562 C 1.679688 -17.226562 0.910156 -16.410156 0.910156 -15.089844 L 0.910156 -1.96875 C 0.910156 -0.648438 1.777344 0.144531 3 0.144531 Z M 3 0.144531 "/></g></g></g><g fill="#997bd4" fill-opacity="1"><g transform="translate(107.72203, 50.399993)"><g><path d="M 5.757812 0.144531 C 6.980469 0.144531 7.820312 -0.648438 7.820312 -1.96875 L 7.820312 -13.21875 L 9.957031 -13.21875 C 11.203125 -13.21875 12.019531 -13.941406 12.019531 -15.140625 C 12.019531 -16.363281 11.203125 -17.082031 9.957031 -17.082031 L 1.558594 -17.082031 C 0.289062 -17.082031 -0.527344 -16.363281 -0.527344 -15.140625 C -0.527344 -13.941406 0.289062 -13.21875 1.558594 -13.21875 L 3.671875 -13.21875 L 3.671875 -1.96875 C 3.671875 -0.648438 4.511719 0.144531 5.757812 0.144531 Z M 5.757812 0.144531 "/></g></g></g><g fill="#997bd4" fill-opacity="1"><g transform="translate(119.452326, 50.399993)"><g><path d="M 2.925781 0 L 9.164062 0 C 10.339844 0 11.15625 -0.769531 11.15625 -1.945312 C 11.15625 -3.167969 10.363281 -3.863281 9.140625 -3.863281 L 5.085938 -3.863281 L 5.085938 -6.667969 L 8.683594 -6.667969 C 9.910156 -6.667969 10.675781 -7.390625 10.675781 -8.589844 C 10.675781 -9.8125 9.859375 -10.53125 8.683594 -10.53125 L 5.0625 -10.53125 L 5.0625 -13.21875 L 9.046875 -13.21875 C 10.195312 -13.21875 11.035156 -13.914062 11.035156 -15.140625 C 11.035156 -16.316406 10.195312 -17.082031 9.046875 -17.082031 L 2.925781 -17.082031 C 1.847656 -17.082031 0.910156 -16.195312 0.910156 -15.042969 L 0.910156 -2.039062 C 0.910156 -0.886719 1.847656 0 2.925781 0 Z M 2.925781 0 "/></g></g></g><g fill="#997bd4" fill-opacity="1"><g transform="translate(130.774778, 50.399993)"><g><path d="M 3 0.144531 C 4.222656 0.144531 5.085938 -0.648438 5.085938 -1.96875 L 5.085938 -9.523438 L 5.132812 -9.523438 L 11.925781 -1.246094 C 12.714844 -0.265625 13.242188 0.144531 14.15625 0.144531 C 15.378906 0.144531 16.21875 -0.648438 16.21875 -1.992188 L 16.21875 -15.117188 C 16.21875 -16.433594 15.378906 -17.226562 14.132812 -17.226562 C 12.90625 -17.226562 12.042969 -16.433594 12.042969 -15.117188 L 12.042969 -7.558594 L 11.996094 -7.558594 L 5.015625 -16.027344 C 4.367188 -16.867188 3.886719 -17.226562 2.949219 -17.226562 C 1.679688 -17.226562 0.910156 -16.410156 0.910156 -15.089844 L 0.910156 -1.96875 C 0.910156 -0.648438 1.777344 0.144531 3 0.144531 Z M 3 0.144531 "/></g></g></g><g fill="#997bd4" fill-opacity="1"><g transform="translate(147.902381, 50.399993)"><g><path d="M 5.757812 0.144531 C 6.980469 0.144531 7.820312 -0.648438 7.820312 -1.96875 L 7.820312 -13.21875 L 9.957031 -13.21875 C 11.203125 -13.21875 12.019531 -13.941406 12.019531 -15.140625 C 12.019531 -16.363281 11.203125 -17.082031 9.957031 -17.082031 L 1.558594 -17.082031 C 0.289062 -17.082031 -0.527344 -16.363281 -0.527344 -15.140625 C -0.527344 -13.941406 0.289062 -13.21875 1.558594 -13.21875 L 3.671875 -13.21875 L 3.671875 -1.96875 C 3.671875 -0.648438 4.511719 0.144531 5.757812 0.144531 Z M 5.757812 0.144531 "/></g></g></g><g fill="#997bd4" fill-opacity="1"><g transform="translate(157.689288, 50.399993)"><g><path d="M 1.945312 0.144531 C 3.046875 0.144531 3.648438 -0.335938 4.175781 -1.96875 L 4.535156 -3.214844 L 10.675781 -3.214844 L 11.109375 -1.894531 C 11.492188 -0.625 12.019531 0.144531 13.292969 0.144531 C 14.492188 0.144531 15.285156 -0.527344 15.285156 -1.582031 C 15.285156 -2.421875 14.972656 -3.285156 14.660156 -4.125 L 10.628906 -14.921875 C 10.027344 -16.53125 9.117188 -17.492188 7.652344 -17.492188 C 6.09375 -17.492188 5.207031 -16.53125 4.605469 -14.921875 L 0.527344 -4.03125 C 0.265625 -3.3125 -0.046875 -2.398438 -0.046875 -1.582031 C -0.046875 -0.527344 0.742188 0.144531 1.945312 0.144531 Z M 5.78125 -7.101562 L 7.675781 -12.90625 L 7.726562 -12.90625 L 9.453125 -7.101562 Z M 5.78125 -7.101562 "/></g></g></g><g fill="#997bd4" fill-opacity="1"><g transform="translate(172.921819, 50.399993)"><g><path d="M 3 0.144531 C 4.222656 0.144531 5.085938 -0.648438 5.085938 -1.96875 L 5.085938 -6.742188 L 5.132812 -6.742188 L 9.574219 -1.007812 C 10.269531 -0.0703125 10.84375 0.144531 11.589844 0.144531 C 13.003906 0.144531 13.773438 -0.886719 13.773438 -1.800781 C 13.773438 -2.496094 13.363281 -3.070312 12.882812 -3.597656 L 9.789062 -6.933594 L 9.933594 -6.980469 C 12.476562 -7.628906 13.554688 -9.691406 13.554688 -11.683594 C 13.554688 -14.996094 11.179688 -17.082031 7.796875 -17.082031 L 2.925781 -17.082031 C 1.847656 -17.082031 0.910156 -16.195312 0.910156 -15.042969 L 0.910156 -1.96875 C 0.910156 -0.648438 1.777344 0.144531 3 0.144531 Z M 5.085938 -9.789062 L 5.085938 -13.21875 L 7.652344 -13.21875 C 8.542969 -13.21875 9.382812 -12.621094 9.382812 -11.5625 C 9.382812 -10.507812 8.660156 -9.789062 7.652344 -9.789062 Z M 5.085938 -9.789062 "/></g></g></g></svg>