<svg xmlns="http://www.w3.org/2000/svg" xmlns:xlink="http://www.w3.org/1999/xlink" width="320" zoomAndPan="magnify" viewBox="0 0 240 74.999997" height="100" preserveAspectRatio="xMidYMid meet" version="1.0"><defs><g/><clipPath id="cdbd3ce8dc"><path d="M 4.402344 26.386719 L 238.1875 26.386719 L 238.1875 57.921875 L 4.402344 57.921875 Z M 4.402344 26.386719 " clip-rule="nonzero"/></clipPath><clipPath id="5b3713c962"><path d="M 238.1875 42.15625 C 238.1875 50.863281 231.128906 57.921875 222.421875 57.921875 L 20.269531 57.921875 C 11.5625 57.921875 4.503906 50.863281 4.503906 42.15625 C 4.503906 33.445312 11.5625 26.386719 20.269531 26.386719 L 222.421875 26.386719 C 231.128906 26.386719 238.1875 33.445312 238.1875 42.15625 Z M 238.1875 42.15625 " clip-rule="nonzero"/></clipPath><clipPath id="f8dcbde9c5"><path d="M 0.402344 0.386719 L 234.1875 0.386719 L 234.1875 31.921875 L 0.402344 31.921875 Z M 0.402344 0.386719 " clip-rule="nonzero"/></clipPath><clipPath id="d62e3d63c5"><path d="M 234.1875 16.15625 C 234.1875 24.863281 227.128906 31.921875 218.421875 31.921875 L 16.269531 31.921875 C 7.5625 31.921875 0.503906 24.863281 0.503906 16.15625 C 0.503906 7.445312 7.5625 0.386719 16.269531 0.386719 L 218.421875 0.386719 C 227.128906 0.386719 234.1875 7.445312 234.1875 16.15625 Z M 234.1875 16.15625 " clip-rule="nonzero"/></clipPath><clipPath id="b9420639c4"><rect x="0" width="235" y="0" height="32"/></clipPath><clipPath id="d5655892d8"><path d="M 3.050781 21.738281 L 236.835938 21.738281 L 236.835938 53.269531 L 3.050781 53.269531 Z M 3.050781 21.738281 " clip-rule="nonzero"/></clipPath><clipPath id="1ace0865f6"><path d="M 236.835938 37.503906 C 236.835938 46.210938 229.777344 53.269531 221.070312 53.269531 L 18.917969 53.269531 C 10.210938 53.269531 3.152344 46.210938 3.152344 37.503906 C 3.152344 28.796875 10.210938 21.738281 18.917969 21.738281 L 221.070312 21.738281 C 229.777344 21.738281 236.835938 28.796875 236.835938 37.503906 Z M 236.835938 37.503906 " clip-rule="nonzero"/></clipPath><clipPath id="225c7e360f"><path d="M 0.121094 0.738281 L 233.835938 0.738281 L 233.835938 32.269531 L 0.121094 32.269531 Z M 0.121094 0.738281 " clip-rule="nonzero"/></clipPath><clipPath id="e7965d2790"><path d="M 233.835938 16.503906 C 233.835938 25.210938 226.777344 32.269531 218.070312 32.269531 L 15.917969 32.269531 C 7.210938 32.269531 0.152344 25.210938 0.152344 16.503906 C 0.152344 7.796875 7.210938 0.738281 15.917969 0.738281 L 218.070312 0.738281 C 226.777344 0.738281 233.835938 7.796875 233.835938 16.503906 Z M 233.835938 16.503906 " clip-rule="nonzero"/></clipPath><clipPath id="9f0fece399"><rect x="0" width="234" y="0" height="33"/></clipPath></defs><g clip-path="url(#cdbd3ce8dc)"><g clip-path="url(#5b3713c962)"><g transform="matrix(1, 0, 0, 1, 4, 26)"><g clip-path="url(#b9420639c4)"><g clip-path="url(#f8dcbde9c5)"><g clip-path="url(#d62e3d63c5)"><path fill="#ffaa71" d="M 234.1875 0.386719 L 234.1875 31.921875 L 0.523438 31.921875 L 0.523438 0.386719 Z M 234.1875 0.386719 " fill-opacity="1" fill-rule="nonzero"/></g></g></g></g></g></g><g clip-path="url(#d5655892d8)"><g clip-path="url(#1ace0865f6)"><g transform="matrix(1, 0, 0, 1, 3, 21)"><g clip-path="url(#9f0fece399)"><g clip-path="url(#225c7e360f)"><g clip-path="url(#e7965d2790)"><path fill="#fde6d8" d="M 233.835938 0.738281 L 233.835938 32.269531 L 0.171875 32.269531 L 0.171875 0.738281 Z M 233.835938 0.738281 " fill-opacity="1" fill-rule="nonzero"/></g></g></g></g></g></g><g fill="#ffaa71" fill-opacity="1"><g transform="translate(69.597656, 45.749995)"><g><path d="M 8.851562 0.335938 C 10.484375 0.335938 11.972656 -0.046875 12.957031 -0.625 C 13.722656 -1.078125 14.203125 -1.726562 14.203125 -2.472656 C 14.203125 -3.40625 13.675781 -4.054688 12.691406 -4.054688 C 12.332031 -4.054688 11.996094 -3.910156 11.589844 -3.71875 C 10.941406 -3.40625 10.078125 -3.09375 8.734375 -3.09375 C 5.972656 -3.09375 4.320312 -5.328125 4.320312 -8.492188 C 4.320312 -11.730469 6.046875 -14.109375 8.902344 -14.109375 C 9.859375 -14.109375 10.726562 -13.773438 11.539062 -13.363281 C 11.925781 -13.195312 12.261719 -13.074219 12.523438 -13.074219 C 13.363281 -13.074219 14.011719 -13.820312 14.011719 -14.730469 C 14.011719 -15.476562 13.507812 -16.148438 12.667969 -16.601562 C 11.757812 -17.082031 10.414062 -17.417969 8.851562 -17.417969 C 3.816406 -17.417969 0.601562 -13.652344 0.601562 -8.421875 C 0.601562 -3.480469 3.671875 0.335938 8.851562 0.335938 Z M 8.851562 0.335938 "/></g></g></g><g fill="#ffaa71" fill-opacity="1"><g transform="translate(83.822684, 45.749995)"><g><path d="M 2.78125 0.144531 C 3.839844 0.144531 4.511719 -0.527344 4.511719 -1.65625 L 4.511719 -6.980469 L 4.558594 -6.980469 L 9.742188 -0.695312 C 10.316406 0.046875 10.75 0.144531 11.371094 0.144531 C 12.429688 0.144531 13.125 -0.648438 13.125 -1.441406 C 13.125 -2.039062 12.8125 -2.496094 12.402344 -2.925781 L 8.515625 -7.101562 L 8.949219 -7.125 C 11.636719 -7.582031 12.933594 -9.691406 12.933594 -11.925781 C 12.933594 -14.996094 10.675781 -17.082031 7.339844 -17.082031 L 2.78125 -17.082031 C 1.800781 -17.082031 1.054688 -16.363281 1.054688 -15.402344 L 1.054688 -1.65625 C 1.054688 -0.527344 1.75 0.144531 2.78125 0.144531 Z M 4.511719 -9.597656 L 4.511719 -13.890625 L 7.246094 -13.890625 C 8.492188 -13.890625 9.476562 -13.101562 9.476562 -11.730469 C 9.476562 -10.414062 8.566406 -9.597656 7.246094 -9.597656 Z M 4.511719 -9.597656 "/></g></g></g><g fill="#ffaa71" fill-opacity="1"><g transform="translate(97.328062, 45.749995)"><g><path d="M 2.78125 0 L 8.949219 0 C 9.910156 0 10.628906 -0.648438 10.628906 -1.609375 C 10.628906 -2.613281 9.933594 -3.191406 8.925781 -3.191406 L 4.511719 -3.191406 L 4.511719 -6.980469 L 8.46875 -6.980469 C 9.476562 -6.980469 10.148438 -7.582031 10.148438 -8.566406 C 10.148438 -9.574219 9.429688 -10.171875 8.46875 -10.171875 L 4.535156 -10.171875 L 4.535156 -13.890625 L 8.78125 -13.890625 C 9.742188 -13.890625 10.460938 -14.46875 10.460938 -15.476562 C 10.460938 -16.433594 9.742188 -17.082031 8.78125 -17.082031 L 2.78125 -17.082031 C 1.824219 -17.082031 1.054688 -16.363281 1.054688 -15.402344 L 1.054688 -1.703125 C 1.054688 -0.71875 1.824219 0 2.78125 0 Z M 2.78125 0 "/></g></g></g><g fill="#ffaa71" fill-opacity="1"><g transform="translate(108.338662, 45.749995)"><g><path d="M 2.78125 0 L 7.484375 0 C 11.492188 0 15.234375 -3.023438 15.234375 -8.613281 C 15.234375 -13.484375 11.996094 -17.082031 7.507812 -17.082031 L 2.78125 -17.082031 C 1.824219 -17.082031 1.054688 -16.363281 1.054688 -15.402344 L 1.054688 -1.679688 C 1.054688 -0.71875 1.824219 0 2.78125 0 Z M 4.511719 -3.191406 L 4.511719 -13.890625 L 7.078125 -13.890625 C 9.765625 -13.890625 11.515625 -11.949219 11.515625 -8.660156 C 11.515625 -5.132812 9.765625 -3.191406 6.933594 -3.191406 Z M 4.511719 -3.191406 "/></g></g></g><g fill="#ffaa71" fill-opacity="1"><g transform="translate(124.170909, 45.749995)"><g><path d="M 2.78125 0.144531 C 3.839844 0.144531 4.511719 -0.527344 4.511719 -1.65625 L 4.511719 -15.425781 C 4.511719 -16.554688 3.839844 -17.226562 2.78125 -17.226562 C 1.75 -17.226562 1.054688 -16.554688 1.054688 -15.425781 L 1.054688 -1.65625 C 1.054688 -0.527344 1.75 0.144531 2.78125 0.144531 Z M 2.78125 0.144531 "/></g></g></g><g fill="#ffaa71" fill-opacity="1"><g transform="translate(129.760169, 45.749995)"><g><path d="M 5.46875 0.144531 C 6.503906 0.144531 7.199219 -0.527344 7.199219 -1.65625 L 7.199219 -13.890625 L 9.667969 -13.890625 C 10.699219 -13.890625 11.394531 -14.492188 11.394531 -15.476562 C 11.394531 -16.484375 10.699219 -17.082031 9.667969 -17.082031 L 1.273438 -17.082031 C 0.238281 -17.082031 -0.457031 -16.484375 -0.457031 -15.476562 C -0.457031 -14.492188 0.238281 -13.890625 1.273438 -13.890625 L 3.742188 -13.890625 L 3.742188 -1.65625 C 3.742188 -0.527344 4.4375 0.144531 5.46875 0.144531 Z M 5.46875 0.144531 "/></g></g></g><g fill="#ffaa71" fill-opacity="1"><g transform="translate(140.362913, 45.749995)"><g><path d="M 8.757812 0.335938 C 13.796875 0.335938 16.9375 -3.335938 16.9375 -8.542969 C 16.9375 -13.820312 13.699219 -17.417969 8.757812 -17.417969 C 3.886719 -17.417969 0.601562 -13.914062 0.601562 -8.542969 C 0.601562 -3.285156 3.816406 0.335938 8.757812 0.335938 Z M 8.78125 -2.855469 C 5.925781 -2.855469 4.320312 -5.277344 4.320312 -8.542969 C 4.320312 -11.925781 6 -14.226562 8.734375 -14.226562 C 11.660156 -14.226562 13.21875 -11.804688 13.21875 -8.515625 C 13.21875 -5.277344 11.636719 -2.855469 8.78125 -2.855469 Z M 8.78125 -2.855469 "/></g></g></g><g fill="#ffaa71" fill-opacity="1"><g transform="translate(157.87433, 45.749995)"><g><path d="M 5.734375 0.335938 C 9.597656 0.335938 12.019531 -1.777344 12.019531 -5.277344 C 12.019531 -8.542969 10.078125 -9.5 6.742188 -10.605469 C 5.0625 -11.179688 4.175781 -11.515625 4.175781 -12.453125 C 4.175781 -13.460938 5.039062 -14.109375 6.214844 -14.109375 C 7.292969 -14.109375 7.941406 -13.746094 8.660156 -13.484375 C 8.902344 -13.410156 9.1875 -13.339844 9.5 -13.339844 C 10.390625 -13.339844 11.035156 -14.035156 11.035156 -14.996094 C 11.035156 -15.714844 10.53125 -16.339844 9.621094 -16.769531 C 8.828125 -17.15625 7.652344 -17.417969 6.382812 -17.417969 C 3.070312 -17.417969 0.480469 -15.5 0.480469 -12.1875 C 0.480469 -8.925781 2.855469 -8.179688 5.878906 -7.199219 C 7.535156 -6.644531 8.347656 -6.09375 8.347656 -5.085938 C 8.347656 -3.886719 7.460938 -3.09375 5.878906 -3.09375 C 4.628906 -3.09375 3.648438 -3.527344 2.808594 -3.886719 C 2.421875 -4.03125 2.085938 -4.125 1.824219 -4.125 C 0.839844 -4.125 0.191406 -3.285156 0.191406 -2.328125 C 0.191406 -1.679688 0.671875 -1.128906 1.390625 -0.671875 C 2.445312 -0.046875 4.101562 0.335938 5.734375 0.335938 Z M 5.734375 0.335938 "/></g></g></g></svg>