<svg xmlns="http://www.w3.org/2000/svg" xmlns:xlink="http://www.w3.org/1999/xlink" width="320" zoomAndPan="magnify" viewBox="0 0 240 74.999997" height="100" preserveAspectRatio="xMidYMid meet" version="1.0"><defs><g/><clipPath id="387d3238de"><path d="M 4.402344 26.386719 L 238.1875 26.386719 L 238.1875 57.921875 L 4.402344 57.921875 Z M 4.402344 26.386719 " clip-rule="nonzero"/></clipPath><clipPath id="b76dca03a7"><path d="M 238.1875 42.15625 C 238.1875 50.863281 231.128906 57.921875 222.421875 57.921875 L 20.269531 57.921875 C 11.5625 57.921875 4.503906 50.863281 4.503906 42.15625 C 4.503906 33.445312 11.5625 26.386719 20.269531 26.386719 L 222.421875 26.386719 C 231.128906 26.386719 238.1875 33.445312 238.1875 42.15625 Z M 238.1875 42.15625 " clip-rule="nonzero"/></clipPath><clipPath id="f6fc5fd1b3"><path d="M 0.402344 0.386719 L 234.1875 0.386719 L 234.1875 31.921875 L 0.402344 31.921875 Z M 0.402344 0.386719 " clip-rule="nonzero"/></clipPath><clipPath id="48cdf9734d"><path d="M 234.1875 16.15625 C 234.1875 24.863281 227.128906 31.921875 218.421875 31.921875 L 16.269531 31.921875 C 7.5625 31.921875 0.503906 24.863281 0.503906 16.15625 C 0.503906 7.445312 7.5625 0.386719 16.269531 0.386719 L 218.421875 0.386719 C 227.128906 0.386719 234.1875 7.445312 234.1875 16.15625 Z M 234.1875 16.15625 " clip-rule="nonzero"/></clipPath><clipPath id="2f27e6cc12"><rect x="0" width="235" y="0" height="32"/></clipPath><clipPath id="2b4c7ebea9"><path d="M 3.050781 21.738281 L 236.835938 21.738281 L 236.835938 53.269531 L 3.050781 53.269531 Z M 3.050781 21.738281 " clip-rule="nonzero"/></clipPath><clipPath id="50ddc7d7e1"><path d="M 236.835938 37.503906 C 236.835938 46.210938 229.777344 53.269531 221.070312 53.269531 L 18.917969 53.269531 C 10.210938 53.269531 3.152344 46.210938 3.152344 37.503906 C 3.152344 28.796875 10.210938 21.738281 18.917969 21.738281 L 221.070312 21.738281 C 229.777344 21.738281 236.835938 28.796875 236.835938 37.503906 Z M 236.835938 37.503906 " clip-rule="nonzero"/></clipPath><clipPath id="eea691d776"><path d="M 0.121094 0.738281 L 233.835938 0.738281 L 233.835938 32.269531 L 0.121094 32.269531 Z M 0.121094 0.738281 " clip-rule="nonzero"/></clipPath><clipPath id="2a2d1e2322"><path d="M 233.835938 16.503906 C 233.835938 25.210938 226.777344 32.269531 218.070312 32.269531 L 15.917969 32.269531 C 7.210938 32.269531 0.152344 25.210938 0.152344 16.503906 C 0.152344 7.796875 7.210938 0.738281 15.917969 0.738281 L 218.070312 0.738281 C 226.777344 0.738281 233.835938 7.796875 233.835938 16.503906 Z M 233.835938 16.503906 " clip-rule="nonzero"/></clipPath><clipPath id="942077c0c9"><rect x="0" width="234" y="0" height="33"/></clipPath></defs><g clip-path="url(#387d3238de)"><g clip-path="url(#b76dca03a7)"><g transform="matrix(1, 0, 0, 1, 4, 26)"><g clip-path="url(#2f27e6cc12)"><g clip-path="url(#f6fc5fd1b3)"><g clip-path="url(#48cdf9734d)"><path fill="#ffaa71" d="M 234.1875 0.386719 L 234.1875 31.921875 L 0.523438 31.921875 L 0.523438 0.386719 Z M 234.1875 0.386719 " fill-opacity="1" fill-rule="nonzero"/></g></g></g></g></g></g><g clip-path="url(#2b4c7ebea9)"><g clip-path="url(#50ddc7d7e1)"><g transform="matrix(1, 0, 0, 1, 3, 21)"><g clip-path="url(#942077c0c9)"><g clip-path="url(#eea691d776)"><g clip-path="url(#2a2d1e2322)"><path fill="#fec9a7" d="M 233.835938 0.738281 L 233.835938 32.269531 L 0.171875 32.269531 L 0.171875 0.738281 Z M 233.835938 0.738281 " fill-opacity="1" fill-rule="nonzero"/></g></g></g></g></g></g><g fill="#ffffff" fill-opacity="1"><g transform="translate(87.621091, 45.749995)"><g><path d="M 2.113281 0.144531 C 3.070312 0.144531 3.816406 -0.191406 4.101562 -2.085938 L 5.445312 -11.058594 L 5.496094 -11.058594 L 8.46875 -1.414062 C 8.804688 -0.40625 9.261719 0.144531 10.339844 0.144531 C 11.371094 0.144531 11.875 -0.289062 12.234375 -1.414062 L 15.210938 -11.085938 L 15.257812 -11.085938 L 16.578125 -2.253906 C 16.84375 -0.625 17.226562 0.144531 18.570312 0.144531 C 19.554688 0.144531 20.203125 -0.625 20.203125 -1.488281 C 20.203125 -1.726562 20.152344 -2.304688 20.007812 -3.167969 L 18.042969 -14.828125 C 17.730469 -16.578125 16.9375 -17.226562 15.5 -17.226562 C 14.011719 -17.226562 13.507812 -16.265625 12.667969 -13.628906 L 10.363281 -6.285156 L 10.316406 -6.285156 L 7.871094 -14.179688 C 7.199219 -16.265625 6.71875 -17.226562 5.085938 -17.226562 C 3.765625 -17.226562 2.949219 -16.554688 2.664062 -14.804688 L 1.03125 -5.085938 C 0.625 -2.6875 0.480469 -1.800781 0.480469 -1.488281 C 0.480469 -0.625 1.175781 0.144531 2.113281 0.144531 Z M 2.113281 0.144531 "/></g></g></g><g fill="#ffffff" fill-opacity="1"><g transform="translate(108.322948, 45.749995)"><g><path d="M 2.78125 0 L 8.949219 0 C 9.910156 0 10.628906 -0.648438 10.628906 -1.609375 C 10.628906 -2.613281 9.933594 -3.191406 8.925781 -3.191406 L 4.511719 -3.191406 L 4.511719 -6.980469 L 8.46875 -6.980469 C 9.476562 -6.980469 10.148438 -7.582031 10.148438 -8.566406 C 10.148438 -9.574219 9.429688 -10.171875 8.46875 -10.171875 L 4.535156 -10.171875 L 4.535156 -13.890625 L 8.78125 -13.890625 C 9.742188 -13.890625 10.460938 -14.46875 10.460938 -15.476562 C 10.460938 -16.433594 9.742188 -17.082031 8.78125 -17.082031 L 2.78125 -17.082031 C 1.824219 -17.082031 1.054688 -16.363281 1.054688 -15.402344 L 1.054688 -1.703125 C 1.054688 -0.71875 1.824219 0 2.78125 0 Z M 2.78125 0 "/></g></g></g><g fill="#ffffff" fill-opacity="1"><g transform="translate(119.333548, 45.749995)"><g><path d="M 2.78125 0.144531 C 3.839844 0.144531 4.511719 -0.527344 4.511719 -1.65625 L 4.511719 -10.84375 L 4.558594 -10.84375 L 12.066406 -1.054688 C 12.714844 -0.238281 13.148438 0.144531 13.914062 0.144531 C 14.972656 0.144531 15.644531 -0.527344 15.644531 -1.65625 L 15.644531 -15.425781 C 15.644531 -16.554688 14.949219 -17.226562 13.914062 -17.226562 C 12.882812 -17.226562 12.1875 -16.554688 12.1875 -15.425781 L 12.1875 -6.285156 L 12.140625 -6.285156 L 4.535156 -16.195312 C 3.984375 -16.867188 3.597656 -17.226562 2.78125 -17.226562 C 1.75 -17.226562 1.054688 -16.53125 1.054688 -15.449219 L 1.054688 -1.65625 C 1.054688 -0.527344 1.75 0.144531 2.78125 0.144531 Z M 2.78125 0.144531 "/></g></g></g><g fill="#ffffff" fill-opacity="1"><g transform="translate(136.029367, 45.749995)"><g><path d="M 8.179688 0.335938 C 12.5 0.335938 15.378906 -2.519531 15.378906 -6.550781 L 15.378906 -15.425781 C 15.378906 -16.554688 14.683594 -17.226562 13.652344 -17.226562 C 12.597656 -17.226562 11.925781 -16.53125 11.925781 -15.425781 L 11.925781 -6.621094 C 11.925781 -4.488281 10.390625 -2.976562 8.15625 -2.976562 C 5.925781 -2.976562 4.414062 -4.488281 4.414062 -6.621094 L 4.414062 -15.425781 C 4.414062 -16.554688 3.742188 -17.226562 2.6875 -17.226562 C 1.65625 -17.226562 0.960938 -16.554688 0.960938 -15.425781 L 0.960938 -6.550781 C 0.960938 -2.542969 3.816406 0.335938 8.179688 0.335938 Z M 8.179688 0.335938 "/></g></g></g></svg>