<svg xmlns="http://www.w3.org/2000/svg" xmlns:xlink="http://www.w3.org/1999/xlink" width="320" zoomAndPan="magnify" viewBox="0 0 240 74.999997" height="100" preserveAspectRatio="xMidYMid meet" version="1.0"><defs><g/><clipPath id="025ac894de"><path d="M 3.050781 21.738281 L 236.835938 21.738281 L 236.835938 53.269531 L 3.050781 53.269531 Z M 3.050781 21.738281 " clip-rule="nonzero"/></clipPath><clipPath id="05f2b31c50"><path d="M 236.835938 37.503906 C 236.835938 46.210938 229.777344 53.269531 221.070312 53.269531 L 18.917969 53.269531 C 10.210938 53.269531 3.152344 46.210938 3.152344 37.503906 C 3.152344 28.796875 10.210938 21.738281 18.917969 21.738281 L 221.070312 21.738281 C 229.777344 21.738281 236.835938 28.796875 236.835938 37.503906 Z M 236.835938 37.503906 " clip-rule="nonzero"/></clipPath><clipPath id="060a798210"><path d="M 0.121094 0.738281 L 233.835938 0.738281 L 233.835938 32.269531 L 0.121094 32.269531 Z M 0.121094 0.738281 " clip-rule="nonzero"/></clipPath><clipPath id="0324a0a30e"><path d="M 233.835938 16.503906 C 233.835938 25.210938 226.777344 32.269531 218.070312 32.269531 L 15.917969 32.269531 C 7.210938 32.269531 0.152344 25.210938 0.152344 16.503906 C 0.152344 7.796875 7.210938 0.738281 15.917969 0.738281 L 218.070312 0.738281 C 226.777344 0.738281 233.835938 7.796875 233.835938 16.503906 Z M 233.835938 16.503906 " clip-rule="nonzero"/></clipPath><clipPath id="00ba3b9693"><rect x="0" width="234" y="0" height="33"/></clipPath></defs><g clip-path="url(#025ac894de)"><g clip-path="url(#05f2b31c50)"><g transform="matrix(1, 0, 0, 1, 3, 21)"><g clip-path="url(#00ba3b9693)"><g clip-path="url(#060a798210)"><g clip-path="url(#0324a0a30e)"><path fill="#65dda0" d="M 233.835938 0.738281 L 233.835938 32.269531 L 0.171875 32.269531 L 0.171875 0.738281 Z M 233.835938 0.738281 " fill-opacity="1" fill-rule="nonzero"/></g></g></g></g></g></g><g fill="#ffffff" fill-opacity="1"><g transform="translate(90.292965, 45.749995)"><g><path d="M 6 0.40625 C 10.101562 0.40625 12.644531 -1.703125 12.644531 -5.328125 C 12.644531 -8.902344 10.460938 -9.765625 7.246094 -10.796875 C 5.734375 -11.300781 4.871094 -11.515625 4.871094 -12.285156 C 4.871094 -13.050781 5.542969 -13.484375 6.527344 -13.484375 C 7.582031 -13.484375 8.230469 -13.171875 8.902344 -12.980469 C 9.164062 -12.90625 9.453125 -12.859375 9.789062 -12.859375 C 10.917969 -12.859375 11.660156 -13.675781 11.660156 -14.804688 C 11.660156 -15.738281 11.035156 -16.507812 9.910156 -16.960938 C 9.09375 -17.296875 8.011719 -17.492188 6.695312 -17.492188 C 2.976562 -17.492188 0.382812 -15.476562 0.382812 -11.925781 C 0.382812 -8.398438 3.144531 -7.628906 5.902344 -6.8125 C 7.390625 -6.335938 8.132812 -5.902344 8.132812 -5.0625 C 8.132812 -4.246094 7.460938 -3.71875 6.285156 -3.71875 C 4.992188 -3.71875 4.03125 -4.152344 3.214844 -4.414062 C 2.78125 -4.558594 2.445312 -4.679688 2.085938 -4.679688 C 0.816406 -4.679688 0.0976562 -3.671875 0.0976562 -2.519531 C 0.0976562 -1.679688 0.71875 -1.03125 1.609375 -0.527344 C 2.78125 0.0976562 4.4375 0.40625 6 0.40625 Z M 6 0.40625 "/></g></g></g><g fill="#ffffff" fill-opacity="1"><g transform="translate(103.414531, 45.749995)"><g><path d="M 1.945312 0.144531 C 3.046875 0.144531 3.648438 -0.335938 4.175781 -1.96875 L 4.535156 -3.214844 L 10.675781 -3.214844 L 11.109375 -1.894531 C 11.492188 -0.625 12.019531 0.144531 13.292969 0.144531 C 14.492188 0.144531 15.285156 -0.527344 15.285156 -1.582031 C 15.285156 -2.421875 14.972656 -3.285156 14.660156 -4.125 L 10.628906 -14.921875 C 10.027344 -16.53125 9.117188 -17.492188 7.652344 -17.492188 C 6.09375 -17.492188 5.207031 -16.53125 4.605469 -14.921875 L 0.527344 -4.03125 C 0.265625 -3.3125 -0.046875 -2.398438 -0.046875 -1.582031 C -0.046875 -0.527344 0.742188 0.144531 1.945312 0.144531 Z M 5.78125 -7.101562 L 7.675781 -12.90625 L 7.726562 -12.90625 L 9.453125 -7.101562 Z M 5.78125 -7.101562 "/></g></g></g><g fill="#ffffff" fill-opacity="1"><g transform="translate(118.647062, 45.749995)"><g><path d="M 2.949219 0 L 9.285156 0 C 10.4375 0 11.300781 -0.769531 11.300781 -1.945312 C 11.300781 -3.167969 10.460938 -3.863281 9.261719 -3.863281 L 5.085938 -3.863281 L 5.085938 -15.117188 C 5.085938 -16.433594 4.222656 -17.226562 3 -17.226562 C 1.777344 -17.226562 0.910156 -16.433594 0.910156 -15.117188 L 0.910156 -2.039062 C 0.910156 -0.886719 1.847656 0 2.949219 0 Z M 2.949219 0 "/></g></g></g><g fill="#ffffff" fill-opacity="1"><g transform="translate(129.657662, 45.749995)"><g><path d="M 3 0.144531 C 4.222656 0.144531 5.085938 -0.648438 5.085938 -1.96875 L 5.085938 -15.117188 C 5.085938 -16.433594 4.222656 -17.226562 3 -17.226562 C 1.777344 -17.226562 0.910156 -16.433594 0.910156 -15.117188 L 0.910156 -1.96875 C 0.910156 -0.648438 1.777344 0.144531 3 0.144531 Z M 3 0.144531 "/></g></g></g><g fill="#ffffff" fill-opacity="1"><g transform="translate(135.65472, 45.749995)"><g><path d="M 3 0.144531 C 4.222656 0.144531 5.085938 -0.648438 5.085938 -1.96875 L 5.085938 -6.742188 L 5.132812 -6.742188 L 9.574219 -1.007812 C 10.269531 -0.0703125 10.84375 0.144531 11.589844 0.144531 C 13.003906 0.144531 13.773438 -0.886719 13.773438 -1.800781 C 13.773438 -2.496094 13.363281 -3.070312 12.882812 -3.597656 L 9.789062 -6.933594 L 9.933594 -6.980469 C 12.476562 -7.628906 13.554688 -9.691406 13.554688 -11.683594 C 13.554688 -14.996094 11.179688 -17.082031 7.796875 -17.082031 L 2.925781 -17.082031 C 1.847656 -17.082031 0.910156 -16.195312 0.910156 -15.042969 L 0.910156 -1.96875 C 0.910156 -0.648438 1.777344 0.144531 3 0.144531 Z M 5.085938 -9.789062 L 5.085938 -13.21875 L 7.652344 -13.21875 C 8.542969 -13.21875 9.382812 -12.621094 9.382812 -11.5625 C 9.382812 -10.507812 8.660156 -9.789062 7.652344 -9.789062 Z M 5.085938 -9.789062 "/></g></g></g></svg>