<svg xmlns="http://www.w3.org/2000/svg" xmlns:xlink="http://www.w3.org/1999/xlink" width="320" zoomAndPan="magnify" viewBox="0 0 240 74.999997" height="100" preserveAspectRatio="xMidYMid meet" version="1.0"><defs><g/><clipPath id="47fb2bf5f3"><path d="M 4.402344 26.386719 L 238.1875 26.386719 L 238.1875 57.921875 L 4.402344 57.921875 Z M 4.402344 26.386719 " clip-rule="nonzero"/></clipPath><clipPath id="88b52b2edf"><path d="M 238.1875 42.15625 C 238.1875 50.863281 231.128906 57.921875 222.421875 57.921875 L 20.269531 57.921875 C 11.5625 57.921875 4.503906 50.863281 4.503906 42.15625 C 4.503906 33.445312 11.5625 26.386719 20.269531 26.386719 L 222.421875 26.386719 C 231.128906 26.386719 238.1875 33.445312 238.1875 42.15625 Z M 238.1875 42.15625 " clip-rule="nonzero"/></clipPath><clipPath id="6417c7e95d"><path d="M 0.402344 0.386719 L 234.1875 0.386719 L 234.1875 31.921875 L 0.402344 31.921875 Z M 0.402344 0.386719 " clip-rule="nonzero"/></clipPath><clipPath id="2224082a68"><path d="M 234.1875 16.15625 C 234.1875 24.863281 227.128906 31.921875 218.421875 31.921875 L 16.269531 31.921875 C 7.5625 31.921875 0.503906 24.863281 0.503906 16.15625 C 0.503906 7.445312 7.5625 0.386719 16.269531 0.386719 L 218.421875 0.386719 C 227.128906 0.386719 234.1875 7.445312 234.1875 16.15625 Z M 234.1875 16.15625 " clip-rule="nonzero"/></clipPath><clipPath id="c6c382ac2a"><rect x="0" width="235" y="0" height="32"/></clipPath></defs><g clip-path="url(#47fb2bf5f3)"><g clip-path="url(#88b52b2edf)"><g transform="matrix(1, 0, 0, 1, 4, 26)"><g clip-path="url(#c6c382ac2a)"><g clip-path="url(#6417c7e95d)"><g clip-path="url(#2224082a68)"><path fill="#a5f8ce" d="M 234.1875 0.386719 L 234.1875 31.921875 L 0.523438 31.921875 L 0.523438 0.386719 Z M 234.1875 0.386719 " fill-opacity="1" fill-rule="nonzero"/></g></g></g></g></g></g><g fill="#53dd97" fill-opacity="1"><g transform="translate(82.538669, 50.399993)"><g><path d="M 7.03125 0.144531 C 8.0625 0.144531 8.683594 -0.382812 9.070312 -1.320312 L 14.15625 -13.746094 C 14.46875 -14.515625 14.5625 -14.921875 14.5625 -15.210938 C 14.5625 -16.242188 13.722656 -17.226562 12.570312 -17.226562 C 11.277344 -17.226562 10.796875 -16.769531 10.125 -14.996094 L 7.125 -7.125 L 7.078125 -7.125 L 3.984375 -15.234375 C 3.3125 -16.960938 2.640625 -17.226562 1.582031 -17.226562 C 0.382812 -17.226562 -0.40625 -16.242188 -0.40625 -15.210938 C -0.40625 -14.921875 -0.3125 -14.636719 0 -13.84375 L 4.992188 -1.414062 C 5.375 -0.40625 6.023438 0.144531 7.03125 0.144531 Z M 7.03125 0.144531 "/></g></g></g><g fill="#53dd97" fill-opacity="1"><g transform="translate(96.331843, 50.399993)"><g><path d="M 9.046875 0.40625 C 14.277344 0.40625 17.585938 -3.167969 17.585938 -8.542969 C 17.585938 -14.058594 14.132812 -17.492188 9.046875 -17.492188 C 3.886719 -17.492188 0.480469 -14.035156 0.480469 -8.542969 C 0.480469 -3.09375 3.910156 0.40625 9.046875 0.40625 Z M 9.019531 -3.429688 C 6.574219 -3.429688 4.964844 -5.445312 4.964844 -8.542969 C 4.964844 -11.5625 6.503906 -13.652344 9.019531 -13.652344 C 11.660156 -13.652344 13.101562 -11.492188 13.101562 -8.542969 C 13.101562 -5.566406 11.636719 -3.429688 9.019531 -3.429688 Z M 9.019531 -3.429688 "/></g></g></g><g fill="#53dd97" fill-opacity="1"><g transform="translate(114.39499, 50.399993)"><g><path d="M 2.949219 0 L 9.285156 0 C 10.4375 0 11.300781 -0.769531 11.300781 -1.945312 C 11.300781 -3.167969 10.460938 -3.863281 9.261719 -3.863281 L 5.085938 -3.863281 L 5.085938 -15.117188 C 5.085938 -16.433594 4.222656 -17.226562 3 -17.226562 C 1.777344 -17.226562 0.910156 -16.433594 0.910156 -15.117188 L 0.910156 -2.039062 C 0.910156 -0.886719 1.847656 0 2.949219 0 Z M 2.949219 0 "/></g></g></g><g fill="#53dd97" fill-opacity="1"><g transform="translate(124.133991, 50.399993)"><g><path d="M 7.03125 0.144531 C 8.0625 0.144531 8.683594 -0.382812 9.070312 -1.320312 L 14.15625 -13.746094 C 14.46875 -14.515625 14.5625 -14.921875 14.5625 -15.210938 C 14.5625 -16.242188 13.722656 -17.226562 12.570312 -17.226562 C 11.277344 -17.226562 10.796875 -16.769531 10.125 -14.996094 L 7.125 -7.125 L 7.078125 -7.125 L 3.984375 -15.234375 C 3.3125 -16.960938 2.640625 -17.226562 1.582031 -17.226562 C 0.382812 -17.226562 -0.40625 -16.242188 -0.40625 -15.210938 C -0.40625 -14.921875 -0.3125 -14.636719 0 -13.84375 L 4.992188 -1.414062 C 5.375 -0.40625 6.023438 0.144531 7.03125 0.144531 Z M 7.03125 0.144531 "/></g></g></g><g fill="#53dd97" fill-opacity="1"><g transform="translate(138.311045, 50.399993)"><g><path d="M 2.925781 0 L 9.164062 0 C 10.339844 0 11.15625 -0.769531 11.15625 -1.945312 C 11.15625 -3.167969 10.363281 -3.863281 9.140625 -3.863281 L 5.085938 -3.863281 L 5.085938 -6.667969 L 8.683594 -6.667969 C 9.910156 -6.667969 10.675781 -7.390625 10.675781 -8.589844 C 10.675781 -9.8125 9.859375 -10.53125 8.683594 -10.53125 L 5.0625 -10.53125 L 5.0625 -13.21875 L 9.046875 -13.21875 C 10.195312 -13.21875 11.035156 -13.914062 11.035156 -15.140625 C 11.035156 -16.316406 10.195312 -17.082031 9.046875 -17.082031 L 2.925781 -17.082031 C 1.847656 -17.082031 0.910156 -16.195312 0.910156 -15.042969 L 0.910156 -2.039062 C 0.910156 -0.886719 1.847656 0 2.925781 0 Z M 2.925781 0 "/></g></g></g><g fill="#53dd97" fill-opacity="1"><g transform="translate(149.633497, 50.399993)"><g><path d="M 3 0.144531 C 4.222656 0.144531 5.085938 -0.648438 5.085938 -1.96875 L 5.085938 -6.742188 L 5.132812 -6.742188 L 9.574219 -1.007812 C 10.269531 -0.0703125 10.84375 0.144531 11.589844 0.144531 C 13.003906 0.144531 13.773438 -0.886719 13.773438 -1.800781 C 13.773438 -2.496094 13.363281 -3.070312 12.882812 -3.597656 L 9.789062 -6.933594 L 9.933594 -6.980469 C 12.476562 -7.628906 13.554688 -9.691406 13.554688 -11.683594 C 13.554688 -14.996094 11.179688 -17.082031 7.796875 -17.082031 L 2.925781 -17.082031 C 1.847656 -17.082031 0.910156 -16.195312 0.910156 -15.042969 L 0.910156 -1.96875 C 0.910156 -0.648438 1.777344 0.144531 3 0.144531 Z M 5.085938 -9.789062 L 5.085938 -13.21875 L 7.652344 -13.21875 C 8.542969 -13.21875 9.382812 -12.621094 9.382812 -11.5625 C 9.382812 -10.507812 8.660156 -9.789062 7.652344 -9.789062 Z M 5.085938 -9.789062 "/></g></g></g></svg>