<svg xmlns="http://www.w3.org/2000/svg" xmlns:xlink="http://www.w3.org/1999/xlink" width="320" zoomAndPan="magnify" viewBox="0 0 240 74.999997" height="100" preserveAspectRatio="xMidYMid meet" version="1.0"><defs><g/><clipPath id="ec13bd19a0"><path d="M 3.050781 21.738281 L 236.835938 21.738281 L 236.835938 53.269531 L 3.050781 53.269531 Z M 3.050781 21.738281 " clip-rule="nonzero"/></clipPath><clipPath id="7d3900b06b"><path d="M 236.835938 37.503906 C 236.835938 46.210938 229.777344 53.269531 221.070312 53.269531 L 18.917969 53.269531 C 10.210938 53.269531 3.152344 46.210938 3.152344 37.503906 C 3.152344 28.796875 10.210938 21.738281 18.917969 21.738281 L 221.070312 21.738281 C 229.777344 21.738281 236.835938 28.796875 236.835938 37.503906 Z M 236.835938 37.503906 " clip-rule="nonzero"/></clipPath><clipPath id="19b199e34c"><path d="M 0.121094 0.738281 L 233.835938 0.738281 L 233.835938 32.269531 L 0.121094 32.269531 Z M 0.121094 0.738281 " clip-rule="nonzero"/></clipPath><clipPath id="20fb7a83ce"><path d="M 233.835938 16.503906 C 233.835938 25.210938 226.777344 32.269531 218.070312 32.269531 L 15.917969 32.269531 C 7.210938 32.269531 0.152344 25.210938 0.152344 16.503906 C 0.152344 7.796875 7.210938 0.738281 15.917969 0.738281 L 218.070312 0.738281 C 226.777344 0.738281 233.835938 7.796875 233.835938 16.503906 Z M 233.835938 16.503906 " clip-rule="nonzero"/></clipPath><clipPath id="8bf5e9e41a"><rect x="0" width="234" y="0" height="33"/></clipPath></defs><g clip-path="url(#ec13bd19a0)"><g clip-path="url(#7d3900b06b)"><g transform="matrix(1, 0, 0, 1, 3, 21)"><g clip-path="url(#8bf5e9e41a)"><g clip-path="url(#19b199e34c)"><g clip-path="url(#20fb7a83ce)"><path fill="#fec9a7" d="M 233.835938 0.738281 L 233.835938 32.269531 L 0.171875 32.269531 L 0.171875 0.738281 Z M 233.835938 0.738281 " fill-opacity="1" fill-rule="nonzero"/></g></g></g></g></g></g><g fill="#ffffff" fill-opacity="1"><g transform="translate(86.923827, 45.749995)"><g><path d="M 2.375 0.144531 C 3.480469 0.144531 4.367188 -0.144531 4.75 -2.566406 L 5.78125 -9.453125 L 5.832031 -9.453125 L 8.253906 -1.65625 C 8.636719 -0.40625 9.214844 0.144531 10.53125 0.144531 C 11.757812 0.144531 12.378906 -0.40625 12.738281 -1.535156 L 15.210938 -9.453125 L 15.257812 -9.453125 L 16.265625 -2.808594 C 16.578125 -0.742188 17.011719 0.144531 18.667969 0.144531 C 19.867188 0.144531 20.65625 -0.816406 20.65625 -1.847656 C 20.65625 -2.113281 20.585938 -2.855469 20.394531 -3.886719 L 18.546875 -14.347656 C 18.136719 -16.507812 17.25 -17.226562 15.644531 -17.226562 C 13.796875 -17.226562 13.242188 -15.980469 12.210938 -12.621094 L 10.558594 -7.460938 L 10.507812 -7.460938 L 8.566406 -13.484375 C 7.75 -15.929688 7.222656 -17.226562 5.230469 -17.226562 C 3.839844 -17.226562 2.878906 -16.484375 2.496094 -14.347656 L 1.054688 -6.308594 C 0.503906 -3.285156 0.382812 -2.230469 0.382812 -1.847656 C 0.382812 -0.816406 1.175781 0.144531 2.375 0.144531 Z M 2.375 0.144531 "/></g></g></g><g fill="#ffffff" fill-opacity="1"><g transform="translate(107.961521, 45.749995)"><g><path d="M 2.925781 0 L 9.164062 0 C 10.339844 0 11.15625 -0.769531 11.15625 -1.945312 C 11.15625 -3.167969 10.363281 -3.863281 9.140625 -3.863281 L 5.085938 -3.863281 L 5.085938 -6.667969 L 8.683594 -6.667969 C 9.910156 -6.667969 10.675781 -7.390625 10.675781 -8.589844 C 10.675781 -9.8125 9.859375 -10.53125 8.683594 -10.53125 L 5.0625 -10.53125 L 5.0625 -13.21875 L 9.046875 -13.21875 C 10.195312 -13.21875 11.035156 -13.914062 11.035156 -15.140625 C 11.035156 -16.316406 10.195312 -17.082031 9.046875 -17.082031 L 2.925781 -17.082031 C 1.847656 -17.082031 0.910156 -16.195312 0.910156 -15.042969 L 0.910156 -2.039062 C 0.910156 -0.886719 1.847656 0 2.925781 0 Z M 2.925781 0 "/></g></g></g><g fill="#ffffff" fill-opacity="1"><g transform="translate(119.283973, 45.749995)"><g><path d="M 3 0.144531 C 4.222656 0.144531 5.085938 -0.648438 5.085938 -1.96875 L 5.085938 -9.523438 L 5.132812 -9.523438 L 11.925781 -1.246094 C 12.714844 -0.265625 13.242188 0.144531 14.15625 0.144531 C 15.378906 0.144531 16.21875 -0.648438 16.21875 -1.992188 L 16.21875 -15.117188 C 16.21875 -16.433594 15.378906 -17.226562 14.132812 -17.226562 C 12.90625 -17.226562 12.042969 -16.433594 12.042969 -15.117188 L 12.042969 -7.558594 L 11.996094 -7.558594 L 5.015625 -16.027344 C 4.367188 -16.867188 3.886719 -17.226562 2.949219 -17.226562 C 1.679688 -17.226562 0.910156 -16.410156 0.910156 -15.089844 L 0.910156 -1.96875 C 0.910156 -0.648438 1.777344 0.144531 3 0.144531 Z M 3 0.144531 "/></g></g></g><g fill="#ffffff" fill-opacity="1"><g transform="translate(136.411577, 45.749995)"><g><path d="M 8.300781 0.40625 C 12.957031 0.40625 15.859375 -2.6875 15.859375 -6.910156 L 15.859375 -15.117188 C 15.859375 -16.433594 14.996094 -17.226562 13.773438 -17.226562 C 12.523438 -17.226562 11.683594 -16.410156 11.683594 -15.117188 L 11.683594 -6.910156 C 11.683594 -4.992188 10.316406 -3.597656 8.324219 -3.597656 C 6.285156 -3.597656 4.964844 -5.015625 4.964844 -6.910156 L 4.964844 -15.117188 C 4.964844 -16.433594 4.125 -17.226562 2.878906 -17.226562 C 1.65625 -17.226562 0.792969 -16.433594 0.792969 -15.117188 L 0.792969 -6.910156 C 0.792969 -2.664062 3.742188 0.40625 8.300781 0.40625 Z M 8.300781 0.40625 "/></g></g></g></svg>