<svg xmlns="http://www.w3.org/2000/svg" xmlns:xlink="http://www.w3.org/1999/xlink" width="320" zoomAndPan="magnify" viewBox="0 0 240 74.999997" height="100" preserveAspectRatio="xMidYMid meet" version="1.0"><defs><g/><clipPath id="1b777ec211"><path d="M 4.402344 26.386719 L 238.1875 26.386719 L 238.1875 57.921875 L 4.402344 57.921875 Z M 4.402344 26.386719 " clip-rule="nonzero"/></clipPath><clipPath id="41938a1744"><path d="M 238.1875 42.15625 C 238.1875 50.863281 231.128906 57.921875 222.421875 57.921875 L 20.269531 57.921875 C 11.5625 57.921875 4.503906 50.863281 4.503906 42.15625 C 4.503906 33.445312 11.5625 26.386719 20.269531 26.386719 L 222.421875 26.386719 C 231.128906 26.386719 238.1875 33.445312 238.1875 42.15625 Z M 238.1875 42.15625 " clip-rule="nonzero"/></clipPath><clipPath id="01f359488b"><path d="M 0.402344 0.386719 L 234.1875 0.386719 L 234.1875 31.921875 L 0.402344 31.921875 Z M 0.402344 0.386719 " clip-rule="nonzero"/></clipPath><clipPath id="424d109487"><path d="M 234.1875 16.15625 C 234.1875 24.863281 227.128906 31.921875 218.421875 31.921875 L 16.269531 31.921875 C 7.5625 31.921875 0.503906 24.863281 0.503906 16.15625 C 0.503906 7.445312 7.5625 0.386719 16.269531 0.386719 L 218.421875 0.386719 C 227.128906 0.386719 234.1875 7.445312 234.1875 16.15625 Z M 234.1875 16.15625 " clip-rule="nonzero"/></clipPath><clipPath id="8afee1730f"><rect x="0" width="235" y="0" height="32"/></clipPath><clipPath id="39b7ef2ef9"><path d="M 3.050781 21.738281 L 236.835938 21.738281 L 236.835938 53.269531 L 3.050781 53.269531 Z M 3.050781 21.738281 " clip-rule="nonzero"/></clipPath><clipPath id="c2bc9bf456"><path d="M 236.835938 37.503906 C 236.835938 46.210938 229.777344 53.269531 221.070312 53.269531 L 18.917969 53.269531 C 10.210938 53.269531 3.152344 46.210938 3.152344 37.503906 C 3.152344 28.796875 10.210938 21.738281 18.917969 21.738281 L 221.070312 21.738281 C 229.777344 21.738281 236.835938 28.796875 236.835938 37.503906 Z M 236.835938 37.503906 " clip-rule="nonzero"/></clipPath><clipPath id="fbf610efbc"><path d="M 0.121094 0.738281 L 233.835938 0.738281 L 233.835938 32.269531 L 0.121094 32.269531 Z M 0.121094 0.738281 " clip-rule="nonzero"/></clipPath><clipPath id="b3d04de77c"><path d="M 233.835938 16.503906 C 233.835938 25.210938 226.777344 32.269531 218.070312 32.269531 L 15.917969 32.269531 C 7.210938 32.269531 0.152344 25.210938 0.152344 16.503906 C 0.152344 7.796875 7.210938 0.738281 15.917969 0.738281 L 218.070312 0.738281 C 226.777344 0.738281 233.835938 7.796875 233.835938 16.503906 Z M 233.835938 16.503906 " clip-rule="nonzero"/></clipPath><clipPath id="8300ca56e1"><rect x="0" width="234" y="0" height="33"/></clipPath></defs><g clip-path="url(#1b777ec211)"><g clip-path="url(#41938a1744)"><g transform="matrix(1, 0, 0, 1, 4, 26)"><g clip-path="url(#8afee1730f)"><g clip-path="url(#01f359488b)"><g clip-path="url(#424d109487)"><path fill="#997bd4" d="M 234.1875 0.386719 L 234.1875 31.921875 L 0.523438 31.921875 L 0.523438 0.386719 Z M 234.1875 0.386719 " fill-opacity="1" fill-rule="nonzero"/></g></g></g></g></g></g><g clip-path="url(#39b7ef2ef9)"><g clip-path="url(#c2bc9bf456)"><g transform="matrix(1, 0, 0, 1, 3, 21)"><g clip-path="url(#8300ca56e1)"><g clip-path="url(#fbf610efbc)"><g clip-path="url(#b3d04de77c)"><path fill="#f3edff" d="M 233.835938 0.738281 L 233.835938 32.269531 L 0.171875 32.269531 L 0.171875 0.738281 Z M 233.835938 0.738281 " fill-opacity="1" fill-rule="nonzero"/></g></g></g></g></g></g><g fill="#997bd4" fill-opacity="1"><g transform="translate(60.146483, 45.749995)"><g><path d="M 3 0.144531 C 4.222656 0.144531 5.085938 -0.648438 5.085938 -1.96875 L 5.085938 -6.742188 L 5.132812 -6.742188 L 9.574219 -1.007812 C 10.269531 -0.0703125 10.84375 0.144531 11.589844 0.144531 C 13.003906 0.144531 13.773438 -0.886719 13.773438 -1.800781 C 13.773438 -2.496094 13.363281 -3.070312 12.882812 -3.597656 L 9.789062 -6.933594 L 9.933594 -6.980469 C 12.476562 -7.628906 13.554688 -9.691406 13.554688 -11.683594 C 13.554688 -14.996094 11.179688 -17.082031 7.796875 -17.082031 L 2.925781 -17.082031 C 1.847656 -17.082031 0.910156 -16.195312 0.910156 -15.042969 L 0.910156 -1.96875 C 0.910156 -0.648438 1.777344 0.144531 3 0.144531 Z M 5.085938 -9.789062 L 5.085938 -13.21875 L 7.652344 -13.21875 C 8.542969 -13.21875 9.382812 -12.621094 9.382812 -11.5625 C 9.382812 -10.507812 8.660156 -9.789062 7.652344 -9.789062 Z M 5.085938 -9.789062 "/></g></g></g><g fill="#997bd4" fill-opacity="1"><g transform="translate(74.179606, 45.749995)"><g><path d="M 2.925781 0 L 9.164062 0 C 10.339844 0 11.15625 -0.769531 11.15625 -1.945312 C 11.15625 -3.167969 10.363281 -3.863281 9.140625 -3.863281 L 5.085938 -3.863281 L 5.085938 -6.667969 L 8.683594 -6.667969 C 9.910156 -6.667969 10.675781 -7.390625 10.675781 -8.589844 C 10.675781 -9.8125 9.859375 -10.53125 8.683594 -10.53125 L 5.0625 -10.53125 L 5.0625 -13.21875 L 9.046875 -13.21875 C 10.195312 -13.21875 11.035156 -13.914062 11.035156 -15.140625 C 11.035156 -16.316406 10.195312 -17.082031 9.046875 -17.082031 L 2.925781 -17.082031 C 1.847656 -17.082031 0.910156 -16.195312 0.910156 -15.042969 L 0.910156 -2.039062 C 0.910156 -0.886719 1.847656 0 2.925781 0 Z M 2.925781 0 "/></g></g></g><g fill="#997bd4" fill-opacity="1"><g transform="translate(85.837953, 45.749995)"><g><path d="M 1.945312 0.144531 C 3.046875 0.144531 3.648438 -0.335938 4.175781 -1.96875 L 4.535156 -3.214844 L 10.675781 -3.214844 L 11.109375 -1.894531 C 11.492188 -0.625 12.019531 0.144531 13.292969 0.144531 C 14.492188 0.144531 15.285156 -0.527344 15.285156 -1.582031 C 15.285156 -2.421875 14.972656 -3.285156 14.660156 -4.125 L 10.628906 -14.921875 C 10.027344 -16.53125 9.117188 -17.492188 7.652344 -17.492188 C 6.09375 -17.492188 5.207031 -16.53125 4.605469 -14.921875 L 0.527344 -4.03125 C 0.265625 -3.3125 -0.046875 -2.398438 -0.046875 -1.582031 C -0.046875 -0.527344 0.742188 0.144531 1.945312 0.144531 Z M 5.78125 -7.101562 L 7.675781 -12.90625 L 7.726562 -12.90625 L 9.453125 -7.101562 Z M 5.78125 -7.101562 "/></g></g></g><g fill="#997bd4" fill-opacity="1"><g transform="translate(101.070484, 45.749995)"><g><path d="M 3 0.144531 C 4.222656 0.144531 5.085938 -0.648438 5.085938 -1.96875 L 5.085938 -9.523438 L 5.132812 -9.523438 L 11.925781 -1.246094 C 12.714844 -0.265625 13.242188 0.144531 14.15625 0.144531 C 15.378906 0.144531 16.21875 -0.648438 16.21875 -1.992188 L 16.21875 -15.117188 C 16.21875 -16.433594 15.378906 -17.226562 14.132812 -17.226562 C 12.90625 -17.226562 12.042969 -16.433594 12.042969 -15.117188 L 12.042969 -7.558594 L 11.996094 -7.558594 L 5.015625 -16.027344 C 4.367188 -16.867188 3.886719 -17.226562 2.949219 -17.226562 C 1.679688 -17.226562 0.910156 -16.410156 0.910156 -15.089844 L 0.910156 -1.96875 C 0.910156 -0.648438 1.777344 0.144531 3 0.144531 Z M 3 0.144531 "/></g></g></g><g fill="#997bd4" fill-opacity="1"><g transform="translate(118.198088, 45.749995)"><g><path d="M 8.300781 0.40625 C 12.957031 0.40625 15.859375 -2.6875 15.859375 -6.910156 L 15.859375 -15.117188 C 15.859375 -16.433594 14.996094 -17.226562 13.773438 -17.226562 C 12.523438 -17.226562 11.683594 -16.410156 11.683594 -15.117188 L 11.683594 -6.910156 C 11.683594 -4.992188 10.316406 -3.597656 8.324219 -3.597656 C 6.285156 -3.597656 4.964844 -5.015625 4.964844 -6.910156 L 4.964844 -15.117188 C 4.964844 -16.433594 4.125 -17.226562 2.878906 -17.226562 C 1.65625 -17.226562 0.792969 -16.433594 0.792969 -15.117188 L 0.792969 -6.910156 C 0.792969 -2.664062 3.742188 0.40625 8.300781 0.40625 Z M 8.300781 0.40625 "/></g></g></g><g fill="#997bd4" fill-opacity="1"><g transform="translate(134.845932, 45.749995)"><g><path d="M 2.925781 0 L 7.796875 0 C 11.828125 0 15.714844 -2.976562 15.714844 -8.710938 C 15.714844 -13.554688 12.285156 -17.082031 7.773438 -17.082031 L 2.925781 -17.082031 C 1.847656 -17.082031 0.910156 -16.195312 0.910156 -15.042969 L 0.910156 -2.039062 C 0.910156 -0.886719 1.847656 0 2.925781 0 Z M 5.085938 -3.863281 L 5.085938 -13.21875 L 7.246094 -13.21875 C 9.644531 -13.21875 11.253906 -11.589844 11.253906 -8.660156 C 11.253906 -5.589844 9.621094 -3.863281 7.078125 -3.863281 Z M 5.085938 -3.863281 "/></g></g></g><g fill="#997bd4" fill-opacity="1"><g transform="translate(150.582141, 45.749995)"><g><path d="M 1.945312 0.144531 C 3.046875 0.144531 3.648438 -0.335938 4.175781 -1.96875 L 4.535156 -3.214844 L 10.675781 -3.214844 L 11.109375 -1.894531 C 11.492188 -0.625 12.019531 0.144531 13.292969 0.144531 C 14.492188 0.144531 15.285156 -0.527344 15.285156 -1.582031 C 15.285156 -2.421875 14.972656 -3.285156 14.660156 -4.125 L 10.628906 -14.921875 C 10.027344 -16.53125 9.117188 -17.492188 7.652344 -17.492188 C 6.09375 -17.492188 5.207031 -16.53125 4.605469 -14.921875 L 0.527344 -4.03125 C 0.265625 -3.3125 -0.046875 -2.398438 -0.046875 -1.582031 C -0.046875 -0.527344 0.742188 0.144531 1.945312 0.144531 Z M 5.78125 -7.101562 L 7.675781 -12.90625 L 7.726562 -12.90625 L 9.453125 -7.101562 Z M 5.78125 -7.101562 "/></g></g></g><g fill="#997bd4" fill-opacity="1"><g transform="translate(165.814672, 45.749995)"><g><path d="M 3 0.144531 C 4.222656 0.144531 5.085938 -0.648438 5.085938 -1.96875 L 5.085938 -6.742188 L 5.132812 -6.742188 L 9.574219 -1.007812 C 10.269531 -0.0703125 10.84375 0.144531 11.589844 0.144531 C 13.003906 0.144531 13.773438 -0.886719 13.773438 -1.800781 C 13.773438 -2.496094 13.363281 -3.070312 12.882812 -3.597656 L 9.789062 -6.933594 L 9.933594 -6.980469 C 12.476562 -7.628906 13.554688 -9.691406 13.554688 -11.683594 C 13.554688 -14.996094 11.179688 -17.082031 7.796875 -17.082031 L 2.925781 -17.082031 C 1.847656 -17.082031 0.910156 -16.195312 0.910156 -15.042969 L 0.910156 -1.96875 C 0.910156 -0.648438 1.777344 0.144531 3 0.144531 Z M 5.085938 -9.789062 L 5.085938 -13.21875 L 7.652344 -13.21875 C 8.542969 -13.21875 9.382812 -12.621094 9.382812 -11.5625 C 9.382812 -10.507812 8.660156 -9.789062 7.652344 -9.789062 Z M 5.085938 -9.789062 "/></g></g></g></svg>