<svg xmlns="http://www.w3.org/2000/svg" xmlns:xlink="http://www.w3.org/1999/xlink" width="40" zoomAndPan="magnify" viewBox="0 0 30 30.000001" height="40" preserveAspectRatio="xMidYMid meet" version="1.0"><defs><clipPath id="617f6ab6a9"><path d="M 1.933594 1.476562 L 28.066406 1.476562 L 28.066406 27.582031 L 1.933594 27.582031 Z M 1.933594 1.476562 " clip-rule="nonzero"/></clipPath><clipPath id="c82c7d1332"><path d="M 10.296875 8.710938 L 19.730469 8.710938 L 19.730469 20.324219 L 10.296875 20.324219 Z M 10.296875 8.710938 " clip-rule="nonzero"/></clipPath></defs><g clip-path="url(#617f6ab6a9)"><path fill="#737373" d="M 28.039062 14.53125 C 28.039062 21.738281 22.195312 27.582031 14.988281 27.582031 C 7.777344 27.582031 1.933594 21.738281 1.933594 14.53125 C 1.933594 7.320312 7.777344 1.476562 14.988281 1.476562 C 22.195312 1.476562 28.039062 7.320312 28.039062 14.53125 Z M 28.039062 14.53125 " fill-opacity="1" fill-rule="nonzero"/></g><g clip-path="url(#c82c7d1332)"><path fill="#ffffff" d="M 14.167969 9.539062 L 14.167969 19.492188 C 14.167969 19.722656 14.085938 19.917969 13.925781 20.078125 C 13.761719 20.242188 13.566406 20.324219 13.339844 20.324219 L 11.125 20.324219 C 10.898438 20.324219 10.703125 20.242188 10.539062 20.078125 C 10.378906 19.917969 10.296875 19.722656 10.296875 19.492188 L 10.296875 9.539062 C 10.296875 9.308594 10.378906 9.113281 10.539062 8.953125 C 10.703125 8.789062 10.898438 8.710938 11.125 8.710938 L 13.339844 8.710938 C 13.566406 8.710938 13.761719 8.789062 13.925781 8.953125 C 14.085938 9.113281 14.167969 9.308594 14.167969 9.539062 Z M 18.867188 8.710938 L 16.65625 8.710938 C 16.425781 8.710938 16.230469 8.789062 16.070312 8.953125 C 15.90625 9.113281 15.828125 9.308594 15.828125 9.539062 L 15.828125 19.492188 C 15.828125 19.722656 15.90625 19.917969 16.070312 20.078125 C 16.230469 20.242188 16.425781 20.324219 16.65625 20.324219 L 18.867188 20.324219 C 19.097656 20.324219 19.292969 20.242188 19.453125 20.078125 C 19.617188 19.917969 19.699219 19.722656 19.699219 19.492188 L 19.699219 9.539062 C 19.699219 9.308594 19.617188 9.113281 19.453125 8.953125 C 19.292969 8.789062 19.097656 8.710938 18.867188 8.710938 Z M 18.867188 8.710938 " fill-opacity="1" fill-rule="nonzero"/></g></svg>