<svg xmlns="http://www.w3.org/2000/svg" xmlns:xlink="http://www.w3.org/1999/xlink" width="400" zoomAndPan="magnify" viewBox="0 0 300 599.999999" height="800" preserveAspectRatio="xMidYMid meet" version="1.0"><defs><clipPath id="1c9cf17ff1"><path d="M 48 215 L 214 215 L 214 465 L 48 465 Z M 48 215 " clip-rule="nonzero"/></clipPath><clipPath id="c4da1a3083"><path d="M 230.46875 561.246094 L -17.304688 500.976562 L 52.179688 215.308594 L 299.957031 275.574219 Z M 230.46875 561.246094 " clip-rule="nonzero"/></clipPath><clipPath id="cf8dab7814"><path d="M 230.46875 561.246094 L -17.304688 500.976562 L 52.179688 215.308594 L 299.957031 275.574219 Z M 230.46875 561.246094 " clip-rule="nonzero"/></clipPath><clipPath id="76c0246236"><path d="M 101 227 L 227 227 L 227 540 L 101 540 Z M 101 227 " clip-rule="nonzero"/></clipPath><clipPath id="aa930973c7"><path d="M 230.46875 561.246094 L -17.304688 500.976562 L 52.179688 215.308594 L 299.957031 275.574219 Z M 230.46875 561.246094 " clip-rule="nonzero"/></clipPath><clipPath id="67e0df0555"><path d="M 230.46875 561.246094 L -17.304688 500.976562 L 52.179688 215.308594 L 299.957031 275.574219 Z M 230.46875 561.246094 " clip-rule="nonzero"/></clipPath><clipPath id="8df9d5e2db"><path d="M 198 252 L 254 252 L 254 489 L 198 489 Z M 198 252 " clip-rule="nonzero"/></clipPath><clipPath id="ec6898393b"><path d="M 230.46875 561.246094 L -17.304688 500.976562 L 52.179688 215.308594 L 299.957031 275.574219 Z M 230.46875 561.246094 " clip-rule="nonzero"/></clipPath><clipPath id="bb6041cb51"><path d="M 230.46875 561.246094 L -17.304688 500.976562 L 52.179688 215.308594 L 299.957031 275.574219 Z M 230.46875 561.246094 " clip-rule="nonzero"/></clipPath><clipPath id="1cecad3324"><path d="M 0 2.058594 L 296 2.058594 L 296 300 L 0 300 Z M 0 2.058594 " clip-rule="nonzero"/></clipPath><clipPath id="ccfea1df6b"><path d="M 140.9375 2.058594 C 55.652344 2.058594 -13.484375 68.753906 -13.484375 151.03125 C -13.484375 233.304688 55.652344 300 140.9375 300 C 226.222656 300 295.363281 233.304688 295.363281 151.03125 C 295.363281 68.753906 226.222656 2.058594 140.9375 2.058594 Z M 140.9375 2.058594 " clip-rule="nonzero"/></clipPath><clipPath id="fb8314d212"><path d="M 0 0.0585938 L 295 0.0585938 L 295 298 L 0 298 Z M 0 0.0585938 " clip-rule="nonzero"/></clipPath><clipPath id="7fcbee9811"><path d="M 140.9375 0.0585938 C 55.652344 0.0585938 -13.484375 66.753906 -13.484375 149.03125 C -13.484375 231.304688 55.652344 298 140.9375 298 C 226.222656 298 295.363281 231.304688 295.363281 149.03125 C 295.363281 66.753906 226.222656 0.0585938 140.9375 0.0585938 Z M 140.9375 0.0585938 " clip-rule="nonzero"/></clipPath><clipPath id="a7f321b187"><rect x="0" width="296" y="0" height="298"/></clipPath><clipPath id="4effb3cb6f"><path d="M 39.277344 55.027344 L 270 55.027344 L 270 285.75 L 39.277344 285.75 Z M 39.277344 55.027344 " clip-rule="nonzero"/></clipPath><clipPath id="0f3b883d8e"><path d="M 154.640625 55.027344 C 90.925781 55.027344 39.277344 106.675781 39.277344 170.390625 C 39.277344 234.101562 90.925781 285.75 154.640625 285.75 C 218.351562 285.75 270 234.101562 270 170.390625 C 270 106.675781 218.351562 55.027344 154.640625 55.027344 Z M 154.640625 55.027344 " clip-rule="nonzero"/></clipPath><clipPath id="f145b9bf73"><path d="M 0.277344 0.0273438 L 231 0.0273438 L 231 230.75 L 0.277344 230.75 Z M 0.277344 0.0273438 " clip-rule="nonzero"/></clipPath><clipPath id="c3dd2d29d6"><path d="M 115.640625 0.0273438 C 51.925781 0.0273438 0.277344 51.675781 0.277344 115.390625 C 0.277344 179.101562 51.925781 230.75 115.640625 230.75 C 179.351562 230.75 231 179.101562 231 115.390625 C 231 51.675781 179.351562 0.0273438 115.640625 0.0273438 Z M 115.640625 0.0273438 " clip-rule="nonzero"/></clipPath><clipPath id="7c90a4bf2a"><rect x="0" width="231" y="0" height="231"/></clipPath><clipPath id="1b2e3c5b6f"><path d="M 111 113 L 144 113 L 144 146 L 111 146 Z M 111 113 " clip-rule="nonzero"/></clipPath><clipPath id="0596c16a50"><path d="M 149.828125 147.996094 L 152.816406 106.316406 L 104.738281 102.824219 L 101.746094 144.503906 Z M 149.828125 147.996094 " clip-rule="nonzero"/></clipPath><clipPath id="10c7eda006"><path d="M 148.175781 141.265625 C 156.789062 123.523438 143.441406 104.652344 125.238281 104.578125 C 110.183594 104.515625 96.242188 123.199219 106.429688 142.640625 C 108.53125 146.652344 118.945312 144.695312 125.25 144.488281 C 132.207031 144.257812 145.738281 146.28125 148.175781 141.265625 Z M 148.175781 141.265625 " clip-rule="evenodd"/></clipPath><clipPath id="2be8225dda"><path d="M 126 114 L 139 114 L 139 127 L 126 127 Z M 126 114 " clip-rule="nonzero"/></clipPath><clipPath id="8f8bf1fa79"><path d="M 149.828125 147.996094 L 152.816406 106.316406 L 104.738281 102.824219 L 101.746094 144.503906 Z M 149.828125 147.996094 " clip-rule="nonzero"/></clipPath><clipPath id="baea83fc26"><path d="M 148.175781 141.265625 C 156.789062 123.523438 143.441406 104.652344 125.238281 104.578125 C 110.183594 104.515625 96.242188 123.199219 106.429688 142.640625 C 108.53125 146.652344 118.945312 144.695312 125.25 144.488281 C 132.207031 144.257812 145.738281 146.28125 148.175781 141.265625 Z M 148.175781 141.265625 " clip-rule="evenodd"/></clipPath><clipPath id="d811aaeb53"><path d="M 136.992188 116.375 C 138.65625 117.59375 140.019531 119.09375 141.078125 120.878906 C 142.140625 122.664062 142.820312 124.597656 143.113281 126.675781 C 143.410156 128.757812 143.300781 130.828125 142.789062 132.886719 C 142.273438 134.945312 141.394531 136.835938 140.148438 138.558594 C 139.53125 139.410156 138.839844 140.199219 138.074219 140.917969 C 137.308594 141.636719 136.484375 142.277344 135.597656 142.832031 C 134.714844 143.390625 133.785156 143.859375 132.816406 144.234375 C 131.84375 144.605469 130.847656 144.882812 129.832031 145.058594 C 128.8125 145.238281 127.789062 145.3125 126.761719 145.285156 C 125.734375 145.257812 124.71875 145.128906 123.722656 144.898438 C 122.726562 144.667969 121.761719 144.339844 120.835938 143.914062 C 119.90625 143.492188 119.027344 142.976562 118.207031 142.375 C 116.539062 141.15625 115.179688 139.65625 114.117188 137.871094 C 113.054688 136.085938 112.378906 134.152344 112.082031 132.074219 C 111.785156 129.992188 111.894531 127.921875 112.410156 125.863281 C 112.921875 123.804688 113.800781 121.914062 115.046875 120.191406 C 115.664062 119.339844 116.355469 118.550781 117.121094 117.832031 C 117.886719 117.113281 118.710938 116.472656 119.597656 115.917969 C 120.484375 115.359375 121.410156 114.890625 122.382812 114.519531 C 123.351562 114.144531 124.347656 113.867188 125.367188 113.691406 C 126.382812 113.511719 127.40625 113.4375 128.4375 113.464844 C 129.464844 113.492188 130.476562 113.621094 131.472656 113.851562 C 132.472656 114.082031 133.433594 114.410156 134.363281 114.835938 C 135.292969 115.257812 136.167969 115.773438 136.992188 116.375 Z M 136.992188 116.375 " clip-rule="nonzero"/></clipPath><clipPath id="69bc1de426"><path d="M 165 113 L 198 113 L 198 146 L 165 146 Z M 165 113 " clip-rule="nonzero"/></clipPath><clipPath id="8cdea0ec95"><path d="M 159.441406 147.996094 L 156.453125 106.316406 L 204.535156 102.824219 L 207.523438 144.503906 Z M 159.441406 147.996094 " clip-rule="nonzero"/></clipPath><clipPath id="2101899839"><path d="M 161.097656 141.265625 C 152.480469 123.523438 165.832031 104.652344 184.035156 104.578125 C 199.089844 104.515625 213.03125 123.199219 202.84375 142.640625 C 200.738281 146.652344 190.324219 144.695312 184.019531 144.488281 C 177.0625 144.257812 163.53125 146.28125 161.097656 141.265625 Z M 161.097656 141.265625 " clip-rule="evenodd"/></clipPath><clipPath id="cd89c9c779"><path d="M 170 114 L 183 114 L 183 127 L 170 127 Z M 170 114 " clip-rule="nonzero"/></clipPath><clipPath id="3140aae5bb"><path d="M 159.441406 147.996094 L 156.453125 106.316406 L 204.535156 102.824219 L 207.523438 144.503906 Z M 159.441406 147.996094 " clip-rule="nonzero"/></clipPath><clipPath id="d338aff726"><path d="M 161.097656 141.265625 C 152.480469 123.523438 165.832031 104.652344 184.035156 104.578125 C 199.089844 104.515625 213.03125 123.199219 202.84375 142.640625 C 200.738281 146.652344 190.324219 144.695312 184.019531 144.488281 C 177.0625 144.257812 163.53125 146.28125 161.097656 141.265625 Z M 161.097656 141.265625 " clip-rule="evenodd"/></clipPath><clipPath id="df0954d0ad"><path d="M 172.28125 116.375 C 170.617188 117.59375 169.253906 119.09375 168.191406 120.878906 C 167.132812 122.664062 166.453125 124.597656 166.15625 126.675781 C 165.859375 128.757812 165.96875 130.828125 166.484375 132.886719 C 166.996094 134.945312 167.878906 136.835938 169.121094 138.558594 C 169.738281 139.410156 170.429688 140.199219 171.195312 140.917969 C 171.960938 141.636719 172.789062 142.277344 173.671875 142.832031 C 174.558594 143.390625 175.484375 143.859375 176.457031 144.234375 C 177.425781 144.605469 178.421875 144.882812 179.441406 145.058594 C 180.460938 145.238281 181.484375 145.3125 182.511719 145.285156 C 183.539062 145.257812 184.550781 145.128906 185.546875 144.898438 C 186.546875 144.667969 187.507812 144.339844 188.4375 143.914062 C 189.367188 143.492188 190.242188 142.976562 191.066406 142.375 C 192.730469 141.15625 194.09375 139.65625 195.152344 137.871094 C 196.214844 136.085938 196.894531 134.152344 197.1875 132.074219 C 197.484375 129.992188 197.375 127.921875 196.863281 125.863281 C 196.347656 123.804688 195.46875 121.914062 194.222656 120.191406 C 193.605469 119.339844 192.914062 118.550781 192.148438 117.832031 C 191.382812 117.113281 190.558594 116.472656 189.671875 115.917969 C 188.789062 115.359375 187.859375 114.890625 186.890625 114.519531 C 185.917969 114.144531 184.925781 113.867188 183.90625 113.691406 C 182.886719 113.511719 181.863281 113.4375 180.835938 113.464844 C 179.808594 113.492188 178.796875 113.621094 177.796875 113.851562 C 176.800781 114.082031 175.835938 114.410156 174.910156 114.835938 C 173.980469 115.257812 173.105469 115.773438 172.28125 116.375 Z M 172.28125 116.375 " clip-rule="nonzero"/></clipPath><clipPath id="6fdb654024"><path d="M 102 155 L 207 155 L 207 188.765625 L 102 188.765625 Z M 102 155 " clip-rule="nonzero"/></clipPath><clipPath id="104764553e"><path d="M 94.640625 149.765625 L 111 149.765625 L 111 161 L 94.640625 161 Z M 94.640625 149.765625 " clip-rule="nonzero"/></clipPath><clipPath id="7162f987fa"><path d="M 199 149.765625 L 214.640625 149.765625 L 214.640625 161 L 199 161 Z M 199 149.765625 " clip-rule="nonzero"/></clipPath></defs><g clip-path="url(#1c9cf17ff1)"><g clip-path="url(#c4da1a3083)"><g clip-path="url(#cf8dab7814)"><path fill="#fefd97" d="M 48.308594 230.472656 L 52.042969 215.117188 L 162.902344 242.082031 C 182.269531 267.046875 199.613281 300.066406 208.101562 342.96875 C 208.945312 347.226562 209.699219 351.585938 210.363281 356.042969 C 210.777344 358.824219 211.152344 361.648438 211.492188 364.507812 C 213.449219 381.0625 213.933594 397.425781 213.632812 413.835938 C 213.574219 414.503906 213.511719 415.175781 213.445312 415.84375 C 212.621094 424.425781 211.445312 432.886719 209.996094 441.265625 C 209.117188 443.414062 208.195312 445.578125 207.234375 447.75 C 204.710938 453.449219 201.996094 459 199.128906 464.445312 C 199.484375 439.519531 196.804688 413.988281 190.273438 389.636719 C 189.574219 387.019531 188.828125 384.421875 188.039062 381.839844 C 186.546875 376.945312 192.542969 427.746094 190.714844 422.992188 C 184.605469 407.058594 187.113281 375.480469 159.710938 327.566406 C 150.992188 312.328125 143.078125 301.347656 131.152344 288.796875 C 122.246094 279.398438 112.671875 270.738281 102.4375 262.808594 C 101.730469 262.257812 101.011719 261.707031 100.285156 261.160156 C 85.972656 250.316406 68.871094 239.761719 48.308594 230.472656 Z M 48.308594 230.472656 " fill-opacity="1" fill-rule="nonzero"/></g></g></g><g clip-path="url(#76c0246236)"><g clip-path="url(#aa930973c7)"><g clip-path="url(#67e0df0555)"><path fill="#fec9a7" d="M 101.917969 227.25 L 193.484375 249.523438 C 204.859375 265.851562 247.445312 336.035156 214.238281 430.140625 C 212.984375 433.703125 211.617188 437.292969 210.136719 440.921875 C 210.089844 441.035156 210.042969 441.148438 209.996094 441.265625 C 209.117188 443.414062 208.195312 445.578125 207.234375 447.75 C 204.710938 453.449219 201.996094 459 199.128906 464.445312 C 195.328125 471.652344 191.257812 478.667969 186.988281 485.59375 C 186.652344 486.066406 186.308594 486.539062 185.960938 487.011719 C 177.1875 499.035156 167.601562 510.074219 157.488281 520.667969 C 151.535156 526.90625 145.402344 532.992188 139.144531 539.03125 C 141.167969 535.972656 143.222656 532.9375 145.3125 529.933594 C 160.402344 508.167969 172.925781 483.292969 180.238281 457.148438 C 180.871094 454.886719 181.464844 452.609375 182.015625 450.328125 C 186.5625 431.558594 188.351562 412.230469 186.421875 393.003906 C 185.699219 385.753906 184.773438 377.117188 183.054688 367.363281 C 182.390625 363.585938 181.609375 359.644531 180.671875 355.550781 C 178.171875 344.578125 174.851562 333.855469 170.710938 323.390625 C 170.421875 322.667969 170.128906 321.9375 169.832031 321.203125 C 158.195312 292.75 138.007812 260.339844 102.011719 227.335938 Z M 101.917969 227.25 " fill-opacity="1" fill-rule="nonzero"/></g></g></g><g clip-path="url(#8df9d5e2db)"><g clip-path="url(#ec6898393b)"><g clip-path="url(#bb6041cb51)"><path fill="#a5f8ce" d="M 204.703125 252.25 L 239.542969 260.726562 C 253.804688 290.636719 275.222656 377.25 198.210938 488.316406 C 205.699219 476.171875 212.589844 463.71875 218.453125 450.476562 C 264.015625 347.597656 216.777344 269.582031 204.703125 252.25 Z M 204.703125 252.25 " fill-opacity="1" fill-rule="nonzero"/></g></g></g><g clip-path="url(#1cecad3324)"><g clip-path="url(#ccfea1df6b)"><g transform="matrix(1, 0, 0, 1, 0, 2)"><g clip-path="url(#a7f321b187)"><g clip-path="url(#fb8314d212)"><g clip-path="url(#7fcbee9811)"><path fill="#545454" d="M -13.484375 0.0585938 L 294.929688 0.0585938 L 294.929688 298 L -13.484375 298 Z M -13.484375 0.0585938 " fill-opacity="1" fill-rule="nonzero"/></g></g></g></g></g></g><g clip-path="url(#4effb3cb6f)"><g clip-path="url(#0f3b883d8e)"><g transform="matrix(1, 0, 0, 1, 39, 55)"><g clip-path="url(#7c90a4bf2a)"><g clip-path="url(#f145b9bf73)"><g clip-path="url(#c3dd2d29d6)"><path fill="#b49fdc" d="M 0.277344 0.0273438 L 231 0.0273438 L 231 230.75 L 0.277344 230.75 Z M 0.277344 0.0273438 " fill-opacity="1" fill-rule="nonzero"/></g></g></g></g></g></g><path fill="#ffffff" d="M 148.175781 141.265625 C 156.789062 123.523438 143.441406 104.652344 125.238281 104.578125 C 110.183594 104.515625 96.242188 123.199219 106.429688 142.640625 C 108.53125 146.652344 118.949219 144.695312 125.25 144.488281 C 132.207031 144.257812 145.738281 146.28125 148.175781 141.265625 Z M 148.175781 141.265625 " fill-opacity="1" fill-rule="evenodd"/><g clip-path="url(#1b2e3c5b6f)"><g clip-path="url(#0596c16a50)"><g clip-path="url(#10c7eda006)"><path fill="#000000" d="M 118.207031 142.375 C 117.382812 141.769531 116.625 141.089844 115.9375 140.332031 C 115.25 139.574219 114.644531 138.753906 114.117188 137.871094 C 113.59375 136.984375 113.15625 136.054688 112.816406 135.082031 C 112.472656 134.105469 112.230469 133.101562 112.082031 132.074219 C 111.933594 131.042969 111.890625 130.003906 111.945312 128.960938 C 112 127.917969 112.152344 126.882812 112.410156 125.863281 C 112.664062 124.84375 113.011719 123.859375 113.457031 122.902344 C 113.902344 121.949219 114.429688 121.046875 115.046875 120.191406 C 115.664062 119.339844 116.355469 118.550781 117.121094 117.832031 C 117.886719 117.113281 118.710938 116.472656 119.597656 115.917969 C 120.484375 115.359375 121.410156 114.890625 122.382812 114.519531 C 123.351562 114.144531 124.347656 113.867188 125.367188 113.691406 C 126.382812 113.511719 127.40625 113.4375 128.4375 113.464844 C 129.464844 113.492188 130.476562 113.621094 131.472656 113.851562 C 132.472656 114.082031 133.433594 114.410156 134.363281 114.835938 C 135.292969 115.257812 136.167969 115.773438 136.992188 116.375 C 137.816406 116.980469 138.570312 117.660156 139.257812 118.417969 C 139.949219 119.175781 140.554688 119.996094 141.078125 120.878906 C 141.605469 121.765625 142.039062 122.695312 142.382812 123.667969 C 142.722656 124.644531 142.96875 125.648438 143.113281 126.675781 C 143.261719 127.707031 143.308594 128.746094 143.253906 129.789062 C 143.195312 130.832031 143.042969 131.867188 142.789062 132.886719 C 142.535156 133.90625 142.183594 134.890625 141.738281 135.847656 C 141.296875 136.800781 140.765625 137.707031 140.148438 138.558594 C 139.53125 139.410156 138.839844 140.199219 138.074219 140.917969 C 137.308594 141.636719 136.484375 142.277344 135.597656 142.832031 C 134.714844 143.390625 133.785156 143.859375 132.816406 144.234375 C 131.84375 144.605469 130.851562 144.882812 129.832031 145.058594 C 128.8125 145.238281 127.789062 145.3125 126.761719 145.285156 C 125.734375 145.257812 124.71875 145.128906 123.722656 144.898438 C 122.726562 144.667969 121.761719 144.339844 120.835938 143.914062 C 119.90625 143.492188 119.027344 142.976562 118.207031 142.375 Z M 118.207031 142.375 " fill-opacity="1" fill-rule="nonzero"/></g></g></g><g clip-path="url(#2be8225dda)"><g clip-path="url(#8f8bf1fa79)"><g clip-path="url(#baea83fc26)"><g clip-path="url(#d811aaeb53)"><path fill="#ffffff" d="M 129.203125 125.335938 C 128.875 125.097656 128.574219 124.828125 128.300781 124.53125 C 128.023438 124.230469 127.78125 123.910156 127.570312 123.5625 C 127.355469 123.21875 127.179688 122.855469 127.039062 122.472656 C 126.898438 122.09375 126.792969 121.703125 126.730469 121.304688 C 126.664062 120.90625 126.640625 120.503906 126.652344 120.097656 C 126.667969 119.695312 126.71875 119.296875 126.8125 118.902344 C 126.90625 118.511719 127.035156 118.132812 127.203125 117.765625 C 127.367188 117.398438 127.570312 117.054688 127.804688 116.726562 C 128.039062 116.402344 128.304688 116.101562 128.601562 115.828125 C 128.894531 115.554688 129.214844 115.316406 129.558594 115.105469 C 129.898438 114.898438 130.261719 114.722656 130.636719 114.585938 C 131.015625 114.445312 131.402344 114.347656 131.800781 114.285156 C 132.199219 114.226562 132.597656 114.203125 133.003906 114.222656 C 133.40625 114.242188 133.800781 114.296875 134.195312 114.394531 C 134.585938 114.492188 134.96875 114.625 135.335938 114.796875 C 135.703125 114.96875 136.046875 115.171875 136.375 115.414062 C 136.703125 115.652344 137.003906 115.921875 137.277344 116.21875 C 137.554688 116.515625 137.796875 116.839844 138.011719 117.1875 C 138.222656 117.53125 138.398438 117.894531 138.539062 118.273438 C 138.683594 118.65625 138.785156 119.046875 138.851562 119.445312 C 138.914062 119.84375 138.941406 120.246094 138.925781 120.648438 C 138.914062 121.054688 138.859375 121.453125 138.765625 121.84375 C 138.675781 122.238281 138.546875 122.617188 138.378906 122.984375 C 138.210938 123.351562 138.007812 123.695312 137.773438 124.023438 C 137.539062 124.347656 137.273438 124.648438 136.980469 124.921875 C 136.683594 125.191406 136.367188 125.433594 136.023438 125.644531 C 135.679688 125.851562 135.320312 126.027344 134.941406 126.164062 C 134.5625 126.300781 134.175781 126.402344 133.777344 126.460938 C 133.378906 126.523438 132.980469 126.546875 132.578125 126.527344 C 132.175781 126.507812 131.777344 126.453125 131.382812 126.355469 C 130.992188 126.257812 130.613281 126.125 130.246094 125.953125 C 129.878906 125.78125 129.53125 125.578125 129.203125 125.335938 Z M 129.203125 125.335938 " fill-opacity="1" fill-rule="nonzero"/></g></g></g></g><path fill="#ffffff" d="M 161.097656 141.265625 C 152.480469 123.523438 165.832031 104.652344 184.035156 104.578125 C 199.089844 104.515625 213.03125 123.199219 202.84375 142.640625 C 200.738281 146.652344 190.324219 144.695312 184.019531 144.488281 C 177.0625 144.257812 163.53125 146.28125 161.097656 141.265625 Z M 161.097656 141.265625 " fill-opacity="1" fill-rule="evenodd"/><g clip-path="url(#69bc1de426)"><g clip-path="url(#8cdea0ec95)"><g clip-path="url(#2101899839)"><path fill="#000000" d="M 191.066406 142.375 C 191.890625 141.769531 192.644531 141.089844 193.335938 140.332031 C 194.023438 139.574219 194.628906 138.753906 195.152344 137.871094 C 195.679688 136.984375 196.113281 136.054688 196.457031 135.082031 C 196.796875 134.105469 197.042969 133.101562 197.1875 132.074219 C 197.335938 131.042969 197.382812 130.003906 197.328125 128.960938 C 197.273438 127.917969 197.117188 126.882812 196.863281 125.863281 C 196.609375 124.84375 196.257812 123.859375 195.816406 122.902344 C 195.371094 121.949219 194.839844 121.046875 194.222656 120.191406 C 193.605469 119.339844 192.914062 118.550781 192.148438 117.832031 C 191.382812 117.113281 190.558594 116.472656 189.671875 115.917969 C 188.789062 115.359375 187.859375 114.890625 186.890625 114.519531 C 185.917969 114.144531 184.925781 113.867188 183.90625 113.691406 C 182.886719 113.511719 181.863281 113.4375 180.835938 113.464844 C 179.808594 113.492188 178.796875 113.621094 177.796875 113.851562 C 176.800781 114.082031 175.835938 114.410156 174.910156 114.835938 C 173.980469 115.257812 173.105469 115.773438 172.28125 116.375 C 171.457031 116.980469 170.699219 117.660156 170.011719 118.417969 C 169.324219 119.175781 168.71875 119.996094 168.191406 120.878906 C 167.667969 121.765625 167.234375 122.695312 166.890625 123.667969 C 166.546875 124.644531 166.304688 125.648438 166.15625 126.675781 C 166.011719 127.707031 165.964844 128.746094 166.019531 129.789062 C 166.074219 130.832031 166.230469 131.867188 166.484375 132.886719 C 166.738281 133.90625 167.085938 134.890625 167.53125 135.847656 C 167.976562 136.800781 168.507812 137.707031 169.121094 138.558594 C 169.738281 139.410156 170.429688 140.199219 171.195312 140.917969 C 171.960938 141.636719 172.789062 142.277344 173.671875 142.832031 C 174.558594 143.390625 175.484375 143.859375 176.457031 144.234375 C 177.425781 144.605469 178.421875 144.882812 179.441406 145.058594 C 180.460938 145.238281 181.484375 145.3125 182.511719 145.285156 C 183.539062 145.257812 184.550781 145.128906 185.546875 144.898438 C 186.546875 144.667969 187.507812 144.339844 188.4375 143.914062 C 189.367188 143.492188 190.242188 142.976562 191.066406 142.375 Z M 191.066406 142.375 " fill-opacity="1" fill-rule="nonzero"/></g></g></g><g clip-path="url(#cd89c9c779)"><g clip-path="url(#3140aae5bb)"><g clip-path="url(#d338aff726)"><g clip-path="url(#df0954d0ad)"><path fill="#ffffff" d="M 180.066406 125.335938 C 180.394531 125.097656 180.695312 124.828125 180.972656 124.53125 C 181.246094 124.230469 181.488281 123.910156 181.703125 123.5625 C 181.914062 123.21875 182.089844 122.855469 182.234375 122.472656 C 182.375 122.09375 182.476562 121.703125 182.542969 121.304688 C 182.605469 120.90625 182.632812 120.503906 182.617188 120.097656 C 182.605469 119.695312 182.550781 119.296875 182.460938 118.902344 C 182.367188 118.511719 182.238281 118.132812 182.070312 117.765625 C 181.902344 117.398438 181.703125 117.054688 181.464844 116.726562 C 181.230469 116.402344 180.964844 116.101562 180.671875 115.828125 C 180.375 115.554688 180.058594 115.316406 179.714844 115.105469 C 179.371094 114.898438 179.011719 114.722656 178.632812 114.585938 C 178.257812 114.445312 177.867188 114.347656 177.46875 114.285156 C 177.074219 114.226562 176.671875 114.203125 176.269531 114.222656 C 175.867188 114.242188 175.46875 114.296875 175.074219 114.394531 C 174.683594 114.492188 174.304688 114.625 173.9375 114.796875 C 173.570312 114.96875 173.222656 115.171875 172.894531 115.414062 C 172.570312 115.652344 172.265625 115.921875 171.992188 116.21875 C 171.71875 116.515625 171.472656 116.839844 171.261719 117.1875 C 171.050781 117.53125 170.871094 117.894531 170.730469 118.273438 C 170.589844 118.65625 170.484375 119.046875 170.421875 119.445312 C 170.355469 119.84375 170.332031 120.246094 170.34375 120.648438 C 170.359375 121.054688 170.410156 121.453125 170.503906 121.84375 C 170.597656 122.238281 170.726562 122.617188 170.894531 122.984375 C 171.058594 123.351562 171.261719 123.695312 171.496094 124.023438 C 171.734375 124.347656 171.996094 124.648438 172.292969 124.921875 C 172.585938 125.191406 172.90625 125.433594 173.25 125.644531 C 173.589844 125.851562 173.953125 126.027344 174.328125 126.164062 C 174.707031 126.300781 175.09375 126.402344 175.492188 126.460938 C 175.890625 126.523438 176.292969 126.546875 176.695312 126.527344 C 177.097656 126.507812 177.496094 126.453125 177.886719 126.355469 C 178.28125 126.257812 178.660156 126.125 179.027344 125.953125 C 179.394531 125.78125 179.742188 125.578125 180.066406 125.335938 Z M 180.066406 125.335938 " fill-opacity="1" fill-rule="nonzero"/></g></g></g></g><path fill="#000000" d="M 148.957031 141.644531 C 153.363281 132.570312 152.207031 123.207031 147.640625 116.050781 C 142.976562 108.746094 134.75 103.742188 125.238281 103.703125 C 116.761719 103.667969 108.601562 109.335938 104.617188 117.773438 C 101.273438 124.847656 100.855469 133.867188 105.667969 143.046875 C 106.554688 144.746094 108.695312 145.625 111.476562 145.902344 C 115.636719 146.3125 121.28125 145.492188 125.28125 145.359375 C 129.742188 145.210938 136.886719 145.976562 142.117188 145.25 C 145.417969 144.789062 147.96875 143.675781 148.957031 141.644531 Z M 160.316406 141.644531 C 161.300781 143.675781 163.855469 144.789062 167.15625 145.25 C 172.382812 145.976562 179.53125 145.210938 183.992188 145.359375 C 187.992188 145.492188 193.636719 146.3125 197.796875 145.902344 C 200.578125 145.625 202.71875 144.746094 203.605469 143.046875 C 208.417969 133.867188 208 124.847656 204.65625 117.773438 C 200.671875 109.335938 192.511719 103.667969 184.03125 103.703125 C 174.523438 103.742188 166.296875 108.746094 161.632812 116.050781 C 157.066406 123.207031 155.910156 132.570312 160.316406 141.644531 Z M 147.398438 140.878906 C 147.074219 141.550781 146.488281 142.054688 145.730469 142.445312 C 144.703125 142.984375 143.375 143.316406 141.878906 143.523438 C 136.707031 144.242188 129.636719 143.46875 125.222656 143.617188 C 121.289062 143.746094 115.738281 144.570312 111.640625 144.164062 C 110.433594 144.046875 109.363281 143.820312 108.523438 143.414062 C 107.933594 143.128906 107.472656 142.753906 107.195312 142.234375 C 102.683594 133.621094 103.042969 125.160156 106.179688 118.523438 C 109.871094 110.710938 117.386719 105.414062 125.234375 105.445312 C 134.128906 105.484375 141.820312 110.160156 146.183594 116.992188 C 150.445312 123.671875 151.511719 132.410156 147.398438 140.878906 Z M 161.875 140.878906 C 157.757812 132.410156 158.828125 123.671875 163.089844 116.992188 C 167.449219 110.160156 175.144531 105.484375 184.039062 105.445312 C 191.886719 105.414062 199.402344 110.710938 203.09375 118.523438 C 206.226562 125.160156 206.589844 133.621094 202.074219 142.234375 C 201.800781 142.753906 201.335938 143.128906 200.746094 143.414062 C 199.910156 143.820312 198.835938 144.046875 197.628906 144.164062 C 193.535156 144.570312 187.984375 143.746094 184.046875 143.617188 C 179.636719 143.46875 172.566406 144.242188 167.390625 143.523438 C 165.898438 143.316406 164.570312 142.984375 163.539062 142.445312 C 162.785156 142.054688 162.199219 141.550781 161.875 140.878906 Z M 161.875 140.878906 " fill-opacity="1" fill-rule="evenodd"/><g clip-path="url(#6fdb654024)"><path fill="#000000" d="M 205.148438 155.28125 C 198.167969 162.640625 190.21875 168.070312 181.613281 171.679688 C 173.011719 175.285156 163.867188 177.042969 154.675781 177.070312 C 145.480469 177.042969 136.320312 175.296875 127.734375 171.679688 C 119.144531 168.058594 111.175781 162.644531 104.195312 155.289062 L 104.195312 155.28125 C 104.074219 155.152344 103.925781 155.078125 103.75 155.054688 C 103.578125 155.03125 103.414062 155.0625 103.261719 155.15625 C 103.109375 155.246094 103.003906 155.375 102.945312 155.542969 C 102.886719 155.710938 102.886719 155.875 102.945312 156.042969 C 106.417969 165.929688 114.050781 174.429688 123.328125 180.09375 C 132.636719 185.804688 143.6875 188.753906 154.675781 188.765625 C 165.660156 188.773438 176.710938 185.804688 186.023438 180.09375 C 195.300781 174.421875 202.929688 165.933594 206.40625 156.042969 C 206.464844 155.875 206.464844 155.707031 206.40625 155.542969 C 206.34375 155.375 206.238281 155.246094 206.089844 155.15625 C 205.9375 155.0625 205.773438 155.03125 205.597656 155.054688 C 205.421875 155.078125 205.273438 155.152344 205.152344 155.28125 Z M 205.148438 155.28125 " fill-opacity="1" fill-rule="nonzero"/></g><g clip-path="url(#104764553e)"><path fill="#000000" d="M 107.464844 153.273438 C 108.152344 153.105469 108.867188 152.992188 109.632812 152.714844 L 109.742188 152.679688 C 110.050781 152.566406 110.222656 152.347656 110.253906 152.019531 C 110.289062 151.691406 110.160156 151.445312 109.878906 151.273438 C 109.152344 150.855469 108.390625 150.515625 107.597656 150.257812 C 106.78125 150.105469 105.949219 149.84375 105.082031 149.867188 C 103.351562 149.769531 101.535156 150.226562 99.917969 151.050781 C 98.269531 151.910156 96.984375 153.144531 96.058594 154.75 C 95.183594 156.289062 94.71875 157.964844 94.914062 159.761719 C 94.953125 160.082031 95.121094 160.292969 95.429688 160.398438 C 95.734375 160.507812 96 160.445312 96.230469 160.214844 L 96.335938 160.105469 C 97.375 159.050781 98.304688 158.035156 99.253906 157.226562 C 100.144531 156.4375 101.113281 155.753906 102.160156 155.179688 C 103.179688 154.660156 104.253906 154.148438 105.507812 153.816406 C 106.117188 153.582031 106.789062 153.492188 107.464844 153.273438 Z M 107.464844 153.273438 " fill-opacity="1" fill-rule="nonzero"/></g><g clip-path="url(#7162f987fa)"><path fill="#000000" d="M 213.207031 154.75 C 212.28125 153.144531 210.992188 151.910156 209.34375 151.050781 C 207.726562 150.226562 205.914062 149.769531 204.183594 149.867188 C 203.3125 149.84375 202.480469 150.105469 201.667969 150.257812 C 200.871094 150.515625 200.109375 150.855469 199.386719 151.273438 C 199.101562 151.445312 198.976562 151.691406 199.007812 152.019531 C 199.039062 152.347656 199.210938 152.566406 199.523438 152.679688 L 199.628906 152.714844 C 200.398438 152.992188 201.109375 153.105469 201.800781 153.273438 C 202.472656 153.492188 203.144531 153.582031 203.75 153.816406 C 205.003906 154.148438 206.070312 154.660156 207.097656 155.179688 C 208.144531 155.753906 209.109375 156.4375 210 157.226562 C 210.957031 158.035156 211.886719 159.050781 212.917969 160.105469 L 213.027344 160.214844 C 213.253906 160.445312 213.523438 160.507812 213.828125 160.398438 C 214.132812 160.292969 214.304688 160.082031 214.339844 159.761719 C 214.546875 157.96875 214.085938 156.289062 213.207031 154.75 Z M 213.207031 154.75 " fill-opacity="1" fill-rule="nonzero"/></g></svg>